<?xml version="1.0" standalone="no"?>
<!DOCTYPE svg PUBLIC "-//W3C//DTD SVG 1.1//EN" "http://www.w3.org/Graphics/SVG/1.1/DTD/svg11.dtd" >
<svg xmlns="http://www.w3.org/2000/svg">
<metadata></metadata>
<defs>
<font id="utsaahregular" horiz-adv-x="816" >
<font-face units-per-em="2048" ascent="1638" descent="-410" />
<missing-glyph horiz-adv-x="407" />
<glyph horiz-adv-x="2048" />
<glyph horiz-adv-x="2048" />
<glyph unicode="&#xd;" horiz-adv-x="2048" />
<glyph unicode=" "  horiz-adv-x="407" />
<glyph unicode="&#x09;" horiz-adv-x="407" />
<glyph unicode="&#xa0;" horiz-adv-x="407" />
<glyph unicode="!" horiz-adv-x="407" d="M126 817v233h160v-233l-38 -556h-83zM132 0v147h148v-147h-148z" />
<glyph unicode="&#x22;" horiz-adv-x="521" d="M67 878v172h147v-172l-32 -200h-79zM305 878v172h147v-172l-35 -200h-77z" />
<glyph unicode="#" d="M15 287v107h143l53 260h-196v106h217l62 308h108l-63 -308h226l62 308h108l-62 -308h124v-106h-145l-54 -260h199v-107h-221l-62 -305h-107l61 305h-225l-62 -305h-107l62 305h-121zM265 394h225l53 260h-225z" />
<glyph unicode="$" d="M52 291l130 25q15 -104 53 -153q54 -68 130 -76v410q-79 15 -162 61q-62 35 -95.5 96t-33.5 138q0 137 98 223q65 57 193 70v61h76v-61q112 -11 178 -66q85 -70 102 -193l-133 -20q-12 76 -48 116.5t-99 53.5v-372q97 -24 129 -38q60 -26 98 -64t58.5 -90.5t20.5 -112.5 q0 -134 -85.5 -223.5t-220.5 -96.5v-130h-76v129q-96 12 -157 43t-105 100.5t-51 169.5zM203 802q0 -66 37 -110.5t125 -70.5v356q-75 -11 -118.5 -59.5t-43.5 -115.5zM441 87q75 9 124 65t49 138q0 70 -34.5 112.5t-138.5 76.5v-392z" />
<glyph unicode="%" horiz-adv-x="1304" d="M85 798q0 112 56.5 191t164.5 79q99 0 163.5 -70.5t64.5 -207.5q0 -133 -65.5 -205t-161.5 -72q-95 0 -158.5 70.5t-63.5 214.5zM198 785q0 -101 32 -142.5t79 -41.5q49 0 81 41.5t32 152.5q0 101 -32.5 142.5t-80.5 41.5t-79.5 -41.5t-31.5 -152.5zM310 -39l574 1107 h105l-572 -1107h-107zM764 246q0 113 56.5 191.5t164.5 78.5q99 0 164 -70.5t65 -207.5q0 -133 -65.5 -205t-162.5 -72q-95 0 -158.5 71.5t-63.5 213.5zM876 233q0 -100 32.5 -141.5t79.5 -41.5q49 0 81 41.5t32 151.5q0 102 -32 143t-80 41q-49 0 -81 -41.5t-32 -152.5z " />
<glyph unicode="&#x26;" horiz-adv-x="978" d="M63 289q0 98 62.5 176t187.5 138q-71 81 -94.5 132t-23.5 98q0 95 74 165t186 70q108 0 176.5 -66t68.5 -159q0 -149 -199 -255l189 -240q32 63 50 146l134 -29q-35 -137 -94 -226q73 -96 164 -161l-86 -102q-78 50 -161 148q-64 -71 -139 -106.5t-163 -35.5 q-161 0 -255 109q-77 89 -77 198zM202 297q0 -64 51 -132.5t144 -68.5q58 0 120 36t99 94l-237 292q-104 -62 -140.5 -115.5t-36.5 -105.5zM327 846q0 -25 12.5 -51.5t37.5 -57.5l58 -66q83 49 108 86.5t25 82.5q0 54 -34 88t-85 34q-52 0 -87 -34t-35 -82z" />
<glyph unicode="'" horiz-adv-x="280" d="M64 874v176h147v-176l-34 -196h-80z" />
<glyph unicode="(" horiz-adv-x="488" d="M89 380q0 171 55 327q64 181 199 361h92q-86 -149 -114 -213q-44 -99 -69 -206q-31 -134 -31 -270q0 -344 214 -688h-92q-107 135 -180.5 315.5t-73.5 373.5z" />
<glyph unicode=")" horiz-adv-x="488" d="M89 -309q214 344 214 688q0 135 -31 268q-24 107 -68 206q-28 64 -115 215h92q135 -180 199 -361q55 -156 55 -327q0 -193 -74 -373.5t-180 -315.5h-92z" />
<glyph unicode="*" horiz-adv-x="571" d="M46 857l33 102q114 -40 165 -70q-13 130 -14 179h104q-2 -71 -17 -178q74 37 169 69l33 -102q-91 -30 -178 -40q43 -38 123 -135l-86 -61q-41 56 -98 154q-53 -101 -93 -154l-85 61q83 102 119 135q-92 18 -175 40z" />
<glyph unicode="+" horiz-adv-x="856" d="M82 458v120h285v285h122v-285h286v-120h-286v-288h-122v288h-285z" />
<glyph unicode="," horiz-adv-x="407" d="M122 -153q41 18 60 53t21 100h-73v147h147v-147q0 -81 -28.5 -130.5t-90.5 -77.5z" />
<glyph unicode="-" horiz-adv-x="488" d="M47 315v130h395v-130h-395z" />
<glyph unicode="." horiz-adv-x="407" d="M133 0v147h147v-147h-147z" />
<glyph unicode="/" horiz-adv-x="407" d="M0 -18l304 1086h103l-303 -1086h-104z" />
<glyph unicode="0" d="M61 518q0 186 38 299.5t114 175t190 61.5q85 0 148.5 -34t105 -98t65 -156t23.5 -248q0 -185 -38 -298.5t-113.5 -175.5t-190.5 -62q-152 0 -238 109q-104 131 -104 427zM193 518q0 -259 60.5 -344.5t149.5 -85.5t149.5 86t60.5 344q0 259 -60.5 344t-150.5 85 q-89 0 -142 -75q-67 -96 -67 -354z" />
<glyph unicode="1" d="M160 666v124q108 51 189 123.5t114 140.5h83v-1054h-129v821q-46 -44 -121.5 -88.5t-135.5 -66.5z" />
<glyph unicode="2" d="M44 0q0 47 15 90q27 70 85.5 139t168.5 159q171 140 231 222t60 155q0 77 -54.5 129.5t-142.5 52.5q-93 0 -149 -55.5t-57 -154.5l-132 13q13 149 102 226.5t239 77.5q151 0 239 -84t88 -207q0 -63 -26 -124t-85.5 -128.5t-198.5 -184.5q-116 -98 -149 -132.5t-55 -69.5 h515v-124h-694z" />
<glyph unicode="3" d="M62 277l128 17q23 -109 76 -157.5t130 -48.5q91 0 153.5 63t62.5 156q0 89 -58 146.5t-147 57.5q-37 0 -91 -14l14 113q13 -1 21 -1q82 0 148 43t66 132q0 71 -48 117.5t-124 46.5q-75 0 -125 -47.5t-65 -141.5l-129 23q24 129 108 200.5t208 71.5q86 0 158.5 -37 t110.5 -100.5t38 -135.5q0 -68 -36.5 -124t-107.5 -88q93 -22 144.5 -89.5t51.5 -169.5q0 -137 -100.5 -233t-253.5 -96q-138 0 -229.5 82.5t-103.5 213.5z" />
<glyph unicode="4" d="M19 251v118l479 681h105v-681h142v-118h-142v-251h-129v251h-455zM145 369h329v474z" />
<glyph unicode="5" d="M61 275l135 11q15 -98 70 -148t132 -50q93 0 157.5 70t64.5 186q0 111 -62 174.5t-162 63.5q-62 0 -112.5 -28t-78.5 -74l-121 16l101 539h522v-123h-418l-57 -282q94 66 198 66q138 0 232.5 -95.5t94.5 -244.5q0 -143 -83 -246q-101 -128 -276 -128q-143 0 -233.5 80 t-103.5 213z" />
<glyph unicode="6" d="M55 491q0 304 113 443q98 120 264 120q124 0 203 -69.5t95 -191.5l-129 -10q-17 75 -48 110q-53 55 -129 55q-62 0 -108 -34q-61 -45 -96 -130t-37 -243q47 71 114 105.5t141 34.5q129 0 219.5 -95t90.5 -245q0 -99 -42.5 -184t-117 -130t-168.5 -45q-162 0 -263.5 118.5 t-101.5 390.5zM203 340q0 -66 28.5 -127t79.5 -93t106 -32q82 0 140.5 66t58.5 179q0 109 -58 171.5t-146 62.5q-87 0 -148 -62.5t-61 -164.5z" />
<glyph unicode="7" d="M69 912v124h680v-100q-100 -107 -198.5 -284t-152.5 -363q-39 -132 -49 -289h-133q2 124 48.5 299.5t133.5 338t186 274.5h-515z" />
<glyph unicode="8" d="M59 304q0 102 52 171t148 94q-80 30 -118.5 84t-38.5 130q0 115 82 193t219 78q138 0 221.5 -80t83.5 -194q0 -73 -38 -127t-117 -84q97 -31 147.5 -101.5t50.5 -167.5q0 -135 -95 -226.5t-251 -91.5q-155 0 -250.5 92t-95.5 230zM192 303q0 -55 26 -106.5t77.5 -80 t111.5 -28.5q92 0 152 59.5t60 151.5q0 93 -62 153.5t-155 60.5q-91 0 -150.5 -60t-59.5 -150zM233 788q0 -75 48 -122t125 -47q74 0 122 46.5t48 114.5q0 71 -49 119.5t-122 48.5q-74 0 -123 -47.5t-49 -112.5z" />
<glyph unicode="9" d="M61 700q0 159 94 256.5t236 97.5q102 0 187 -55t129 -157t44 -296q0 -201 -43.5 -320t-130 -181.5t-202.5 -62.5q-123 0 -201 68.5t-94 192.5l124 11q16 -87 60.5 -126.5t113.5 -39.5q59 0 104 27t73.5 72.5t48 123t19.5 157.5q0 9 -1 26q-38 -62 -105 -100t-145 -38 q-131 0 -221 94.5t-90 249.5zM193 695q0 -100 60.5 -162.5t149.5 -62.5q90 0 147.5 62.5t57.5 173.5t-59 176t-142 65q-86 0 -150 -70t-64 -182z" />
<glyph unicode=":" horiz-adv-x="407" d="M132 0v147h147v-147h-147zM132 614v146h147v-146h-147z" />
<glyph unicode=";" horiz-adv-x="407" d="M122 -153q41 18 60 53t21 100h-73v147h147v-147q0 -81 -28.5 -130.5t-90.5 -77.5zM130 614v146h147v-146h-147z" />
<glyph unicode="&#x3c;" horiz-adv-x="856" d="M80 459v120l695 294v-128l-551 -227l551 -228v-128z" />
<glyph unicode="=" horiz-adv-x="856" d="M82 299v120h693v-120h-693zM82 617v120h693v-120h-693z" />
<glyph unicode="&#x3e;" horiz-adv-x="856" d="M80 162v128l551 228l-551 227v128l695 -294v-120z" />
<glyph unicode="?" d="M64 765q18 146 106.5 224.5t234.5 78.5q153 0 245 -84t92 -203q0 -69 -32.5 -127t-125.5 -141q-63 -55 -82.5 -81.5t-29 -61t-10.5 -112.5h-124q-1 26 -1 39q0 76 22 131q15 42 51 84q25 31 92 90t87 94t20 77q0 75 -58.5 132t-143.5 57q-83 0 -138 -52t-72 -161zM330 0 v147h147v-147h-147z" />
<glyph unicode="@" horiz-adv-x="1489" d="M79 336q0 175 72 333q87 194 248 297t390 103q178 0 319 -72.5t223 -216.5q69 -124 69 -269q0 -208 -146 -369q-130 -145 -285 -145q-49 0 -79.5 15t-44.5 43q-9 18 -14 62q-46 -54 -104 -86.5t-116 -32.5q-63 0 -123.5 37t-98 114.5t-37.5 169.5q0 114 58.5 228.5 t145 171.5t168.5 57q62 0 118.5 -32.5t97.5 -99.5l24 111h129l-103 -480q-22 -100 -22 -111q0 -19 14.5 -33t35.5 -14q38 0 100 43q81 58 129 154t48 199q0 119 -61.5 223t-183 166t-267.5 62q-168 0 -306.5 -78t-215 -224.5t-76.5 -314.5q0 -175 76.5 -302t221 -187.5 t319.5 -60.5q188 0 314.5 63t189.5 154h130q-37 -76 -126 -154t-211 -123.5t-295 -45.5q-159 0 -293 41t-228.5 123t-142.5 189q-61 135 -61 292zM485 311q0 -98 46.5 -152.5t106.5 -54.5q40 0 84.5 24t85 71t66 120t25.5 146q0 97 -48 150.5t-118 53.5q-46 0 -86.5 -23 t-78 -74.5t-60.5 -125.5t-23 -135z" />
<glyph unicode="A" horiz-adv-x="978" d="M-2 0l403 1050h150l429 -1050h-158l-122 318h-439l-116 -318h-147zM301 431h356l-110 291q-50 132 -74 217q-20 -101 -57 -200z" />
<glyph unicode="B" horiz-adv-x="978" d="M107 0v1050h394q120 0 193 -32t114 -98.5t41 -138.5q0 -67 -36.5 -126.5t-110.5 -96.5q96 -27 147 -94.5t51 -159.5q0 -73 -31 -136.5t-77 -98t-115 -52t-169 -17.5h-401zM246 124h262q67 0 94 5q48 8 80.5 28.5t53 58.5t20.5 88q0 59 -30 102.5t-83.5 61t-153.5 17.5 h-243v-361zM246 609h227q93 0 133 12q53 16 79.5 52.5t26.5 91.5q0 52 -25 91.5t-71.5 54.5t-159.5 15h-210v-317z" />
<glyph unicode="C" horiz-adv-x="1059" d="M73 533q0 164 62.5 286t178.5 185.5t255 63.5q157 0 264.5 -80.5t149.5 -225.5l-137 -32q-36 114 -105.5 166.5t-174.5 52.5q-121 0 -202.5 -58t-114.5 -156t-33 -202q0 -133 39 -233t121.5 -149.5t178.5 -49.5q117 0 197.5 67.5t109.5 199.5l139 -35 q-44 -171 -157.5 -261t-277.5 -90q-169 0 -275.5 69t-162 200t-55.5 282z" />
<glyph unicode="D" horiz-adv-x="1059" d="M113 0v1050h362q122 0 187 -15q90 -21 154 -76q83 -70 124 -179t41 -249q0 -120 -28 -212.5t-71.5 -153t-95.5 -95t-125.5 -52.5t-168.5 -18h-379zM252 124h224q104 0 163 19.5t94 54.5q50 49 77.5 132.5t27.5 202.5q0 164 -54 252.5t-132 118.5q-56 22 -179 22h-221 v-802z" />
<glyph unicode="E" horiz-adv-x="978" d="M116 0v1050h759v-124h-620v-322h581v-123h-581v-357h644v-124h-783z" />
<glyph unicode="F" horiz-adv-x="896" d="M120 0v1050h708v-124h-569v-325h493v-124h-493v-477h-139z" />
<glyph unicode="G" horiz-adv-x="1141" d="M78 520q0 153 64 286t184.5 197.5t277.5 64.5q113 0 205 -37t144.5 -103t79.5 -172l-125 -34q-24 80 -59 126t-100 73.5t-145 27.5q-95 0 -164.5 -29t-112 -76.5t-66.5 -103.5q-40 -98 -40 -212q0 -140 48.5 -234.5t141 -140.5t195.5 -46q91 0 177 35t130 74v196h-309 v123l445 1v-390q-102 -82 -211 -123t-224 -41q-154 0 -280.5 66.5t-191 191.5t-64.5 280z" />
<glyph unicode="H" horiz-adv-x="1059" d="M117 0v1050h139v-431h546v431h139v-1050h-139v495h-546v-495h-139z" />
<glyph unicode="I" horiz-adv-x="407" d="M137 0v1050h139v-1050h-139z" />
<glyph unicode="J" horiz-adv-x="733" d="M42 298l126 17q5 -120 45 -164.5t111 -44.5q52 0 90 24t52 65t14 131v724h139v-716q0 -131 -31.5 -203.5t-101 -110.5t-162.5 -38q-138 0 -210 79.5t-72 236.5z" />
<glyph unicode="K" horiz-adv-x="978" d="M107 0v1050h139v-521l522 521h188l-440 -426l459 -624h-183l-374 531l-172 -167v-364h-139z" />
<glyph unicode="L" d="M107 0v1050h139v-926h517v-124h-656z" />
<glyph unicode="M" horiz-adv-x="1221" d="M109 0v1050h209l248 -744q35 -103 50 -155q18 57 56 168l252 731h187v-1050h-134v879l-305 -879h-126l-303 894v-894h-134z" />
<glyph unicode="N" horiz-adv-x="1059" d="M112 0v1050h142l552 -824v824h133v-1050h-143l-551 825v-825h-133z" />
<glyph unicode="O" horiz-adv-x="1141" d="M71 511q0 262 140.5 409.5t362.5 147.5q145 0 261.5 -69.5t178 -193.5t61.5 -282q0 -159 -64.5 -285t-182.5 -191t-255 -65q-148 0 -265 71.5t-177 195.5t-60 262zM214 509q0 -190 102 -299t256 -109q157 0 258.5 110t101.5 313q0 128 -43.5 223.5t-127 148.5t-187.5 53 q-147 0 -253.5 -101.5t-106.5 -338.5z" />
<glyph unicode="P" horiz-adv-x="978" d="M113 0v1050h396q105 0 160 -10q77 -13 129.5 -49.5t84 -101.5t31.5 -143q0 -134 -85 -226.5t-308 -92.5h-269v-427h-139zM252 551h271q135 0 191.5 50t56.5 141q0 66 -33 112.5t-88 61.5q-35 10 -129 10h-269v-375z" />
<glyph unicode="Q" horiz-adv-x="1141" d="M63 525q0 155 63 282.5t179.5 194t260.5 66.5q145 0 261.5 -69t178 -193t61.5 -280q0 -130 -39.5 -233.5t-118.5 -180.5q96 -66 178 -97l-41 -97q-113 41 -225 129q-117 -65 -258 -65q-143 0 -259 69t-178.5 193.5t-62.5 280.5zM206 525q0 -205 101.5 -314.5 t258.5 -109.5q75 0 141 28q-65 42 -138 60l34 101q120 -34 198 -100q123 111 123 336q0 127 -43.5 222t-127 148t-187.5 53q-155 0 -257.5 -106.5t-102.5 -317.5z" />
<glyph unicode="R" horiz-adv-x="1059" d="M115 0v1050h466q140 0 213 -28.5t116.5 -100t43.5 -158.5q0 -111 -72 -188t-223 -97q55 -27 83 -53q61 -56 116 -139l182 -286h-174l-139 218q-61 95 -100.5 145t-70.5 70t-63 28q-24 5 -78 5h-161v-466h-139zM254 586h299q95 0 148.5 20t81.5 63t28 94q0 75 -54 123 t-171 48h-332v-348z" />
<glyph unicode="S" horiz-adv-x="978" d="M66 337l131 12q9 -79 43 -129.5t105.5 -81.5t161.5 -31q79 0 140 23.5t91 64.5t30 90t-29 86t-95 62q-42 17 -186.5 51.5t-202.5 65.5q-75 39 -112 97.5t-37 130.5q0 80 45 149t131.5 105t192.5 36q117 0 206 -38t137 -111t52 -165l-133 -10q-11 99 -73 150t-183 51 q-126 0 -183.5 -46t-57.5 -111q0 -57 41 -93q40 -37 209 -75.5t232 -66.5q92 -42 135.5 -107t43.5 -150q0 -83 -47.5 -157.5t-137.5 -115.5t-203 -41q-142 0 -238.5 41.5t-151 125t-57.5 188.5z" />
<glyph unicode="T" horiz-adv-x="896" d="M34 926v124h832v-124h-347v-926h-139v926h-346z" />
<glyph unicode="U" horiz-adv-x="1059" d="M115 443v607h139v-606q0 -137 25.5 -201.5t87.5 -100t151 -35.5q154 0 219 69.5t65 267.5v606h139v-607q0 -158 -36 -251t-129.5 -151.5t-244.5 -58.5q-148 0 -242 51t-134 147t-40 263z" />
<glyph unicode="V" horiz-adv-x="978" d="M6 1050h151l273 -763q33 -92 55 -172q24 86 56 172l284 763h142l-411 -1050h-143z" />
<glyph unicode="W" horiz-adv-x="1384" d="M18 1050h142l160 -688q26 -109 44 -215q41 168 48 194l199 709h168l150 -532q57 -197 82 -371q20 99 52 228l165 675h140l-288 -1050h-134l-221 800q-28 100 -33 123q-17 -72 -31 -123l-223 -800h-142z" />
<glyph unicode="X" horiz-adv-x="978" d="M6 0l406 547l-358 503h166l190 -270q60 -83 85 -128q35 57 83 119l211 279h151l-369 -495l398 -555h-172l-264 374q-22 33 -46 71q-35 -58 -50 -79l-264 -366h-167z" />
<glyph unicode="Y" horiz-adv-x="978" d="M4 1050h169l207 -317q57 -89 107 -177q47 82 114 185l204 309h162l-419 -605v-445h-139v445z" />
<glyph unicode="Z" horiz-adv-x="896" d="M29 0v129l538 672q57 72 109 125h-586v124h752v-124l-589 -728l-64 -74h670v-124h-830z" />
<glyph unicode="[" horiz-adv-x="407" d="M100 -291v1341h284v-107h-156v-1128h156v-106h-284z" />
<glyph unicode="\" horiz-adv-x="407" d="M0 1068h104l303 -1086h-103z" />
<glyph unicode="]" horiz-adv-x="407" d="M28 -185h155v1128h-155v107h284v-1341h-284v106z" />
<glyph unicode="^" horiz-adv-x="688" d="M39 494l252 574h104l254 -574h-129l-177 427l-172 -427h-132z" />
<glyph unicode="_" d="M-22 -198h854v-93h-854v93z" />
<glyph unicode="`" horiz-adv-x="488" d="M64 1055h172l97 -200h-104z" />
<glyph unicode="a" d="M53 200q0 56 25.5 102.5t66.5 74.5t93 42q38 10 114 19q156 19 230 45q1 26 1 33q0 79 -37 111q-49 44 -146 44q-91 0 -134.5 -32t-64.5 -113l-126 17q17 81 56.5 131t114 77t172.5 27t158.5 -23t89.5 -58t40 -88q6 -33 6 -119v-171q0 -180 8.5 -227.5t32.5 -91.5h-134 q-20 40 -26 94q-72 -61 -138 -86t-142 -25q-125 0 -192.5 61t-67.5 156zM190 204q0 -51 39.5 -85.5t114.5 -34.5q74 0 132 32.5t85 88.5q21 44 21 129v48q-70 -29 -210 -49q-80 -12 -113 -26t-51 -41.5t-18 -61.5z" />
<glyph unicode="b" d="M96 0v1050h129v-375q81 103 208 103q70 0 133 -28.5t103.5 -79.5t63 -123.5t22.5 -154.5q0 -196 -96.5 -302.5t-231.5 -106.5t-211 112v-95h-120zM214 386q0 -137 37 -198q61 -99 165 -99q84 0 146 73.5t62 218.5q0 149 -59.5 220t-142.5 71q-85 0 -146.5 -73.5 t-61.5 -212.5z" />
<glyph unicode="c" horiz-adv-x="733" d="M57 377q0 123 41 215.5t124.5 139t181.5 46.5q124 0 202.5 -63t100.5 -178l-125 -19q-18 76 -63.5 115t-109.5 39q-98 0 -158.5 -70t-60.5 -221q0 -153 58.5 -222.5t153.5 -69.5q76 0 126.5 46.5t64.5 143.5l127 -17q-21 -131 -106.5 -205t-210.5 -74q-156 0 -251 102 t-95 292z" />
<glyph unicode="d" d="M50 379q0 114 38 207t114 142.5t170 49.5q68 0 122 -29t87 -76v377h129v-1050h-120v96q-72 -113 -213 -113q-91 0 -167 50t-118 140t-42 206zM183 379q0 -146 61.5 -218t145.5 -72t143 69t59 211q0 156 -60 229t-148 73q-86 0 -143.5 -70t-57.5 -222z" />
<glyph unicode="e" d="M54 374q0 192 98.5 298t256.5 106q152 0 249 -104t97 -292q0 -12 -1 -35h-567q7 -125 70.5 -191.5t159.5 -66.5q71 0 121 37t79 119l133 -17q-31 -116 -116.5 -180.5t-217.5 -64.5q-167 0 -264.5 102.5t-97.5 288.5zM194 453h425q-9 96 -49 144q-62 75 -160 75 q-89 0 -149.5 -59.5t-66.5 -159.5z" />
<glyph unicode="f" horiz-adv-x="407" d="M14 660v100h113v81q0 77 14 114q19 50 65.5 81.5t131.5 31.5q54 0 120 -13l-19 -113q-40 7 -76 7q-59 0 -83 -25t-24 -93v-71h148v-100h-148v-660h-129v660h-113z" />
<glyph unicode="g" d="M47 384q0 109 39.5 201t114.5 142.5t176 50.5q134 0 222 -109v91h118v-657q0 -177 -36 -251.5t-114.5 -117.5t-192.5 -43q-136 0 -220 61q-81 60 -81 177v8l125 -19q8 -58 44 -84q48 -36 131 -36q90 0 138.5 36t65.5 100q9 36 9 144v22q-84 -100 -210 -100 q-157 0 -243 113t-86 271zM180 394q0 -150 59.5 -218.5t148.5 -68.5t149 68t60 215q0 139 -62 210t-149 71q-86 0 -146 -70t-60 -207z" />
<glyph unicode="h" d="M97 0v1050h129v-377q90 105 227 105q85 0 147 -33.5t89 -92t27 -170.5v-482h-129v482q0 97 -42 141t-118 44q-58 0 -108 -30t-71.5 -81t-21.5 -140v-416h-129z" />
<glyph unicode="i" horiz-adv-x="326" d="M97 0v760h129v-760h-129zM97 901v149h129v-149h-129z" />
<glyph unicode="j" horiz-adv-x="326" d="M-67 -295l24 110q39 -10 61 -10q39 0 58.5 26t19.5 130v799h129v-802q0 -140 -37 -195q-46 -72 -154 -72q-53 0 -101 14zM96 900v150h129v-150h-129z" />
<glyph unicode="k" horiz-adv-x="733" d="M97 0v1050h129v-599l305 309h167l-291 -282l320 -478h-158l-252 389l-91 -88v-301h-129z" />
<glyph unicode="l" horiz-adv-x="326" d="M94 0v1050h129v-1050h-129z" />
<glyph unicode="m" horiz-adv-x="1221" d="M97 0v760h115v-106q36 56 95.5 90t134.5 34q85 0 139 -35.5t76 -98.5q91 134 235 134q113 0 174 -63t61 -193v-522h-128v479q0 77 -12.5 111t-45.5 55t-78 21q-80 0 -133 -53.5t-53 -170.5v-442h-129v494q0 86 -31.5 129t-102.5 43q-55 0 -101 -28.5t-66.5 -84 t-20.5 -158.5v-395h-129z" />
<glyph unicode="n" d="M97 0v760h116v-108q83 126 242 126q68 0 126 -25t86.5 -65t39.5 -95q8 -36 8 -125v-468h-129v463q0 78 -15 117t-53.5 62.5t-90.5 23.5q-82 0 -141.5 -52.5t-59.5 -198.5v-415h-129z" />
<glyph unicode="o" d="M49 380q0 211 117 313q98 85 239 85q157 0 256.5 -103t99.5 -284q0 -147 -44 -231t-128 -130.5t-184 -46.5q-159 0 -257.5 102.5t-98.5 294.5zM181 380q0 -146 64 -218.5t160 -72.5t160 73t64 222q0 142 -64.5 214.5t-159.5 72.5q-96 0 -160 -72.5t-64 -218.5z" />
<glyph unicode="p" d="M97 -291v1051h117v-98q42 58 94 87t127 29q97 0 171.5 -50.5t112.5 -141.5t38 -200q0 -117 -42 -210.5t-122 -143t-168 -49.5q-64 0 -115.5 27t-83.5 69v-370h-129zM213 376q0 -147 59.5 -217t144.5 -70q86 0 147 72.5t61 225.5q0 145 -60 217.5t-143 72.5 q-82 0 -145.5 -77t-63.5 -224z" />
<glyph unicode="q" d="M52 387q0 115 39.5 206t115 138t165.5 47q141 0 222 -119v101h116v-1051h-129v372q-30 -42 -84 -70t-115 -28q-135 0 -232.5 108t-97.5 296zM184 382q0 -146 61.5 -219.5t147.5 -73.5q82 0 141.5 69.5t59.5 212.5q0 152 -62.5 228.5t-147.5 76.5q-83 0 -141.5 -71.5 t-58.5 -222.5z" />
<glyph unicode="r" horiz-adv-x="488" d="M95 0v760h116v-115q45 81 82.5 107t82.5 26q65 0 132 -42l-44 -120q-47 28 -95 28q-42 0 -75.5 -25t-47.5 -71q-22 -68 -22 -150v-398h-129z" />
<glyph unicode="s" horiz-adv-x="733" d="M45 227l128 20q10 -77 59 -117.5t137 -40.5q89 0 132 36t43 85q0 43 -38 69q-26 17 -132 43q-141 36 -196 62t-83 72.5t-28 101.5q0 51 23 94.5t63 72.5q30 22 82 37.5t112 15.5q89 0 156.5 -26t100 -70t44.5 -118l-126 -17q-9 59 -50 92t-116 33q-89 0 -127 -29.5 t-38 -68.5q0 -26 16 -46t49 -34q20 -7 114 -33q137 -36 191 -59.5t85 -68t31 -110.5q0 -64 -38 -121t-108.5 -88t-160.5 -31q-148 0 -225.5 61.5t-99.5 182.5z" />
<glyph unicode="t" horiz-adv-x="407" d="M26 660v100h94v189l128 77v-266h130v-100h-130v-444q0 -56 7 -71.5t22.5 -25t43.5 -9.5q22 0 57 5l19 -114q-55 -11 -98 -11q-70 0 -108.5 22t-54.5 58.5t-16 152.5v437h-94z" />
<glyph unicode="u" d="M94 289v471h129v-421q0 -101 8 -136q12 -51 51 -80t97 -29t109 29.5t72 81t21 148.5v407h129v-760h-115v112q-89 -129 -241 -129q-68 0 -126 25.5t-86.5 64.5t-39.5 96q-8 38 -8 120z" />
<glyph unicode="v" horiz-adv-x="733" d="M19 760h136l163 -455q26 -74 49 -153q17 60 48 144l169 464h132l-288 -760h-120z" />
<glyph unicode="w" horiz-adv-x="1059" d="M4 760h133l121 -439l46 -163q2 12 39 157l121 445h132l114 -441l38 -145l44 147l130 439h126l-238 -760h-134l-121 455l-29 130l-154 -585h-135z" />
<glyph unicode="x" horiz-adv-x="733" d="M11 0l278 395l-257 365h161l116 -178q33 -51 53 -85q32 47 58 84l128 179h154l-262 -358l282 -402h-158l-156 236l-41 64l-200 -300h-156z" />
<glyph unicode="y" horiz-adv-x="733" d="M24 760h139l158 -440q31 -84 55 -176q22 89 53 173l162 443h129l-289 -773q-47 -125 -72 -172q-35 -64 -79 -94t-106 -30q-37 0 -83 16l-14 121q42 -11 73 -11q43 0 69 14t42 40q13 19 40 96q3 11 11 32z" />
<glyph unicode="z" horiz-adv-x="733" d="M29 0v105l484 555q-83 -4 -146 -4h-310v104h622v-85l-412 -482l-79 -88q86 6 162 6h352v-111h-673z" />
<glyph unicode="{" horiz-adv-x="490" d="M41 321v117q55 2 89.5 30t46 77.5t12.5 169t4 157.5q7 60 24.5 96.5t43 58.5t65.5 33q28 8 89 8h40v-113h-22q-74 0 -98.5 -27t-24.5 -120q0 -187 -8 -237q-13 -76 -44 -117.5t-98 -74.5q79 -32 114.5 -100t35.5 -222q0 -139 3 -166q6 -49 29 -68t91 -19h22v-113h-40 q-70 0 -101 12q-46 16 -76 53t-39 93.5t-10 185.5t-12.5 178.5t-46 78t-89.5 29.5z" />
<glyph unicode="|" horiz-adv-x="381" d="M135 -309v1377h112v-1377h-112z" />
<glyph unicode="}" horiz-adv-x="490" d="M34 -196h22q74 0 98.5 27t24.5 120q0 179 6 227q12 80 46.5 127.5t97.5 73.5q-83 40 -116.5 104.5t-33.5 218.5q0 140 -4 167q-5 48 -28 67t-91 19h-22v113h40q70 0 101 -12q46 -16 76 -53t39 -93.5t10 -185.5t12.5 -178t46 -77.5t89.5 -30.5v-117q-55 -1 -89.5 -29.5 t-46 -77.5t-12.5 -168.5t-4 -157.5q-7 -61 -24.5 -97.5t-43 -58t-65.5 -33.5q-28 -8 -89 -8h-40v113z" />
<glyph unicode="~" horiz-adv-x="856" d="M62 399v147q76 86 199 86q43 0 90.5 -13t134.5 -50q50 -21 74.5 -27t49.5 -6q47 0 96.5 27.5t88.5 70.5v-152q-46 -43 -93 -62.5t-106 -19.5q-43 0 -82 10t-123.5 48t-141.5 38q-46 0 -86.5 -19.5t-100.5 -77.5z" />
<glyph unicode="&#xa1;" horiz-adv-x="488" d="M166 -57l37 556h83l40 -556v-232h-160v232zM172 614v146h148v-146h-148z" />
<glyph unicode="&#xa2;" d="M77 377q0 127 41.5 218.5t125 137t170.5 45.5q26 0 71 -5l81 277l79 -23l-80 -277q71 -31 109 -83t53 -130l-126 -19q-18 80 -68 122l-159 -548q23 -7 43 -7q75 0 129 51t66 143l128 -15q-23 -132 -111.5 -208t-208.5 -76q-36 0 -74 10l-85 -283l-80 23l82 285 q-82 39 -134 131t-52 231zM209 383q0 -94 23 -159.5t65 -96.5l160 546q-23 2 -36 2q-59 0 -110 -32.5t-76.5 -101t-25.5 -158.5z" />
<glyph unicode="&#xa3;" d="M19 104q69 38 117 108.5t48 171.5q0 44 -12 89h-140v106h110q-24 80 -30.5 117t-6.5 72q0 149 111 233q88 67 214 67q130 0 214 -71.5t104 -200.5l-129 -19q-10 86 -63.5 135.5t-128.5 49.5q-79 0 -131.5 -51.5t-52.5 -123.5q0 -80 41 -208h225v-106h-203q13 -31 13 -63 q0 -62 -29.5 -131.5t-97.5 -141.5q56 16 103 16q59 0 134 -18q123 -30 167 -30q53 0 137 40l42 -118q-66 -28 -102 -36.5t-72 -8.5q-30 0 -61 6q-19 3 -92.5 26t-95.5 27q-33 6 -67 6q-52 0 -110 -18t-106 -49z" />
<glyph unicode="&#xa4;" d="M53 253l100 98q-51 79 -51 169q0 89 51 168l-100 97l82 86l100 -100q76 52 170 52t169 -52l100 100l83 -86l-100 -97q51 -79 51 -168q0 -90 -51 -169l100 -98l-83 -85l-100 101q-75 -53 -169 -53t-170 53l-100 -101zM218 520q0 -78 54.5 -132t131.5 -54q76 0 130.5 54 t54.5 132q0 76 -54 130.5t-131 54.5t-131.5 -54.5t-54.5 -130.5z" />
<glyph unicode="&#xa5;" d="M-2 1050h143l208 -370q35 -63 54 -110q17 38 59 117l196 363h153l-290 -509h244v-106h-295v-103h295v-99h-295v-233h-128v233h-298v99h298v103h-298v106h245z" />
<glyph unicode="&#xa6;" horiz-adv-x="381" d="M135 258h112v-567h-112v567zM135 502v566h112v-566h-112z" />
<glyph unicode="&#xa7;" d="M58 461q0 69 43 125t118 78q-51 48 -71.5 89.5t-20.5 87.5q0 92 71.5 159.5t189.5 67.5q134 0 209 -64t90 -185l-134 -13q-15 87 -52.5 121.5t-100.5 34.5q-66 0 -106.5 -35.5t-40.5 -78.5q0 -37 26 -69q40 -49 219 -158q112 -68 151 -100q51 -43 75 -89t24 -100 q0 -81 -52 -138q-30 -33 -110 -67q57 -43 85.5 -93t28.5 -108q0 -63 -36 -119t-103.5 -86t-145.5 -30q-136 0 -216.5 68.5t-96.5 190.5l130 18q20 -93 63.5 -130.5t119.5 -37.5q73 0 114 37.5t41 87.5q0 36 -26 67q-44 54 -243 176q-106 65 -148 101.5t-68.5 87t-26.5 104.5 zM175 475q0 -45 33 -85q33 -41 148 -109q96 -57 165 -106q53 27 79.5 63t26.5 71q0 40 -38 86q-38 45 -161 121q-98 60 -146 98q-58 -33 -82.5 -65.5t-24.5 -73.5z" />
<glyph unicode="&#xa8;" horiz-adv-x="488" d="M44 909v147h134v-147h-134zM311 909v147h134v-147h-134z" />
<glyph unicode="&#xa9;" horiz-adv-x="1080" d="M2 527q0 141 72.5 271t202.5 200t266 70t265.5 -70t202 -200t72.5 -271q0 -140 -71.5 -268.5t-200 -200t-268.5 -71.5q-141 0 -269.5 71.5t-200 200t-71.5 268.5zM92 527q0 -117 59.5 -224t167 -166.5t224.5 -59.5q116 0 223.5 59.5t167 166.5t59.5 224t-60.5 225.5 t-168.5 167t-221 58.5q-114 0 -222 -58.5t-168.5 -167t-60.5 -225.5zM260 526q0 94 36 164t102 105.5t151 35.5q95 0 158 -45.5t86 -123.5l-85 -21q-21 53 -63 81t-99 28q-82 0 -135.5 -58.5t-53.5 -168.5q0 -109 50.5 -165.5t130.5 -56.5q65 0 113.5 37.5t64.5 101.5 l88 -26q-21 -90 -91 -143t-170 -53q-126 0 -204.5 81.5t-78.5 226.5z" />
<glyph unicode="&#xaa;" horiz-adv-x="543" d="M34 691q0 34 11.5 60t34 46t57.5 32q26 8 71 15l106 16q51 10 68 14q0 50 -9.5 67.5t-35 30t-67.5 12.5q-57 0 -84.5 -23.5t-34.5 -66.5l-98 25q9 63 63 106t155 43q118 0 166 -44q48 -45 48 -130v-172v-43q0 -96 29 -132h-106q-14 29 -16 64q-87 -77 -183 -77 q-81 0 -128 44t-47 113zM140 691q0 -29 24.5 -50t68.5 -21q53 0 91.5 28t51.5 69q5 14 6 73q-38 -10 -138 -25q-64 -10 -84 -28q-20 -19 -20 -46z" />
<glyph unicode="&#xab;" d="M96 378l228 327h106l-187 -327l186 -326h-105zM377 378l224 327h109l-189 -327l189 -326h-109z" />
<glyph unicode="&#xac;" horiz-adv-x="856" d="M82 617v120h693v-433h-122v313h-571z" />
<glyph unicode="&#xad;" horiz-adv-x="488" d="M47 315v130h395v-130h-395z" />
<glyph unicode="&#xae;" horiz-adv-x="1080" d="M2 527q0 141 72.5 271t202.5 200t266 70t265.5 -70t202 -200t72.5 -271q0 -140 -71.5 -268.5t-200 -200t-268.5 -71.5q-141 0 -269.5 71.5t-200 200t-71.5 268.5zM92 527q0 -117 59.5 -224t167 -166.5t224.5 -59.5q116 0 223.5 59.5t167 166.5t59.5 224t-60.5 225.5 t-168.5 167t-221 58.5q-114 0 -222 -58.5t-168.5 -167t-60.5 -225.5zM306 228v582h199q103 0 149 -16t73 -56.5t27 -85.5q0 -63 -45.5 -110.5t-120.5 -53.5q31 -13 49 -30q35 -35 86 -116l71 -114h-115l-51 92q-61 108 -98 135q-26 20 -75 20h-55v-247h-94zM400 556h113 q82 0 111.5 24t29.5 64q0 26 -14 46.5t-39.5 30.5t-94.5 10h-106v-175z" />
<glyph unicode="&#xaf;" horiz-adv-x="810" d="M-22 1121v93h854v-93h-854z" />
<glyph unicode="&#xb0;" horiz-adv-x="586" d="M92 869q0 83 58 141t140 58q83 0 141 -58t58 -141q0 -82 -58.5 -140.5t-140.5 -58.5t-140 58t-58 141zM170 869q0 -50 35.5 -85.5t85.5 -35.5q49 0 84.5 35.5t35.5 85.5t-35.5 85.5t-84.5 35.5q-50 0 -85.5 -35.5t-35.5 -85.5z" />
<glyph unicode="&#xb1;" horiz-adv-x="805" d="M56 0v120h693v-120h-693zM56 475v119h286v286h121v-286h286v-119h-286v-289h-121v289h-286z" />
<glyph unicode="&#xb2;" horiz-adv-x="488" d="M18 525q4 41 34 81q45 62 148 137t122 96q27 30 27 60q0 35 -25 57t-74 22q-47 0 -70.5 -17t-38.5 -65l-108 12q21 79 72 117t147 38q108 0 158.5 -42.5t50.5 -103.5q0 -60 -42 -114q-32 -40 -147 -122q-59 -44 -84 -70h276v-86h-446z" />
<glyph unicode="&#xb3;" horiz-adv-x="488" d="M24 665l104 11q14 -43 37 -59q31 -21 73 -21q51 0 82 28t31 67q0 36 -26 57.5t-88 21.5q-9 0 -24 -2h-15l15 78q58 0 85 21.5t27 51.5q0 27 -21.5 45.5t-63.5 18.5q-40 0 -62.5 -15.5t-39.5 -57.5l-102 17q29 75 74 105.5t131 30.5q103 0 149.5 -38.5t46.5 -95.5 q0 -40 -25 -70.5t-73 -44.5q63 -16 93.5 -52t30.5 -85q0 -66 -57 -115.5t-161 -49.5q-100 0 -153 39.5t-68 113.5z" />
<glyph unicode="&#xb4;" horiz-adv-x="488" d="M159 855l95 200h169l-157 -200h-107z" />
<glyph unicode="&#xb5;" horiz-adv-x="845" d="M115 -291v1051h127v-322q0 -175 18.5 -227t60.5 -82t96 -30q58 0 103 31.5t63.5 81t18.5 224.5v324h127v-760h-115v90q-38 -57 -74 -79q-50 -29 -117 -29q-59 0 -105 24q-34 18 -76 71v-368h-127z" />
<glyph unicode="&#xb6;" horiz-adv-x="788" d="M1 748q0 138 86 220t252 82h454v-124h-103v-1217h-122v1217h-160v-1217h-118v748q-134 7 -211.5 87t-77.5 204z" />
<glyph unicode="&#xb7;" horiz-adv-x="407" d="M132 443v147h147v-147h-147z" />
<glyph unicode="&#xb8;" horiz-adv-x="488" d="M77 -293l7 84q46 -3 68 -3q67 0 94 19q21 14 21 35q0 13 -8 23t-30.5 17t-73.5 8l37 126h96l-24 -76q61 -7 92 -37.5t31 -67.5q0 -54 -51.5 -95t-155.5 -41q-59 0 -103 8z" />
<glyph unicode="&#xb9;" horiz-adv-x="488" d="M77 841v88q44 14 98.5 52t87.5 82h78v-538h-104v396q-73 -58 -160 -80z" />
<glyph unicode="&#xba;" horiz-adv-x="536" d="M32 795q0 129 65.5 201t169.5 72t169.5 -72t65.5 -198q0 -125 -66 -196.5t-168 -71.5q-104 0 -170 70t-66 195zM138 798q0 -90 36.5 -132t92.5 -42q57 0 93 42t36 136q0 87 -36 128.5t-93 41.5q-58 0 -93.5 -40.5t-35.5 -133.5z" />
<glyph unicode="&#xbb;" d="M100 52l189 326l-189 327h108l225 -327l-225 -326h-108zM379 705h106l229 -327l-229 -326h-105l186 326z" />
<glyph unicode="&#xbc;" horiz-adv-x="1223" d="M77 841v88q44 14 98.5 52t87.5 82h78v-538h-104v396q-73 -58 -160 -80zM180 -41l789 1109h112l-788 -1109h-113zM750 88v88l290 340h87v-351h74v-77h-74v-110h-103v110h-274zM859 165h165v189z" />
<glyph unicode="&#xbd;" horiz-adv-x="1223" d="M77 841v88q44 14 98.5 52t87.5 82h78v-538h-104v396q-73 -58 -160 -80zM163 -41l789 1109h112l-788 -1109h-113zM751 -22q4 40 34 81q45 62 148 136.5t122 96.5q27 29 27 60q0 35 -25 56.5t-74 21.5q-47 0 -70.5 -16.5t-38.5 -64.5l-108 11q21 80 72.5 118t146.5 38 q108 0 158.5 -42.5t50.5 -103.5q0 -60 -42 -114q-32 -40 -146 -123q-60 -43 -85 -69h276v-86h-446z" />
<glyph unicode="&#xbe;" horiz-adv-x="1223" d="M24 665l104 11q14 -43 37 -59q31 -21 73 -21q51 0 82 28t31 67q0 36 -26 57.5t-86 21.5q-36 -2 -41 -2l15 78q58 0 85 21.5t27 51.5q0 27 -21.5 45.5t-63.5 18.5q-40 0 -62.5 -15.5t-39.5 -57.5l-102 17q29 75 74 105.5t131 30.5q103 0 149.5 -38.5t46.5 -95.5 q0 -40 -25 -70.5t-73 -44.5q63 -16 93.5 -52t30.5 -85q0 -66 -57 -115.5t-161 -49.5q-100 0 -153 39.5t-68 113.5zM180 -41l789 1109h112l-788 -1109h-113zM750 88v88l289 340h88v-351h74v-77h-74v-110h-104v110h-273zM859 165h164v189z" />
<glyph unicode="&#xbf;" horiz-adv-x="896" d="M113 -21q0 70 32 127t126 140q63 57 82.5 83.5t28.5 61t10 111.5h124q1 -24 1 -37q0 -78 -22 -133q-15 -42 -50 -84q-26 -31 -93 -89.5t-86.5 -94t-19.5 -76.5q0 -76 58.5 -132.5t143.5 -56.5q82 0 137.5 51.5t72.5 160.5l132 -15q-18 -146 -106.5 -224.5t-233.5 -78.5 q-154 0 -245.5 83.5t-91.5 202.5zM378 614v146h147v-146h-147z" />
<glyph unicode="&#xc0;" horiz-adv-x="978" d="M-2 0l403 1050h150l429 -1050h-158l-122 318h-439l-116 -318h-147zM301 431h356l-110 291q-50 132 -74 217q-20 -101 -57 -200zM321 1314h172l97 -200h-104z" />
<glyph unicode="&#xc1;" horiz-adv-x="978" d="M-2 0l403 1050h150l429 -1050h-158l-122 318h-439l-116 -318h-147zM301 431h356l-110 291q-50 132 -74 217q-20 -101 -57 -200zM387 1114l95 200h169l-157 -200h-107z" />
<glyph unicode="&#xc2;" horiz-adv-x="978" d="M-2 0l403 1050h150l429 -1050h-158l-122 318h-439l-116 -318h-147zM247 1114l155 200h137l161 -200h-146l-79 122l-81 -122h-147zM301 431h356l-110 291q-50 132 -74 217q-20 -101 -57 -200z" />
<glyph unicode="&#xc3;" horiz-adv-x="978" d="M-2 0l403 1050h150l429 -1050h-158l-122 318h-439l-116 -318h-147zM250 1114q0 74 41 119q41 44 104 44q45 0 121 -39q43 -21 68 -21q23 0 35 12.5t17 49.5h93q-2 -81 -41 -122t-99 -41q-45 0 -119 40q-48 26 -70 26q-25 0 -40 -17q-15 -18 -15 -51h-95zM301 431h356 l-110 291q-50 132 -74 217q-20 -101 -57 -200z" />
<glyph unicode="&#xc4;" horiz-adv-x="978" d="M-2 0l403 1050h150l429 -1050h-158l-122 318h-439l-116 -318h-147zM272 1114v147h134v-147h-134zM301 431h356l-110 291q-50 132 -74 217q-20 -101 -57 -200zM539 1114v147h134v-147h-134z" />
<glyph unicode="&#xc5;" horiz-adv-x="978" d="M-2 0l403 1050h150l429 -1050h-158l-122 318h-439l-116 -318h-147zM301 431h356l-110 291q-50 132 -74 217q-20 -101 -57 -200zM344 1146q0 52 38.5 90t90.5 38q53 0 91 -38t38 -93t-38 -93t-90 -38q-54 0 -92 38.5t-38 95.5zM398 1144q0 -32 23 -55t53 -24q31 1 53.5 24 t22.5 54q0 33 -22 56t-54 22q-30 1 -53 -21.5t-23 -55.5z" />
<glyph unicode="&#xc6;" horiz-adv-x="1466" d="M1 0l504 1050h862v-124h-528v-323h491v-123h-491v-356h547v-124h-686v303h-406l-143 -303h-150zM353 426h347v500h-104z" />
<glyph unicode="&#xc7;" horiz-adv-x="1059" d="M73 533q0 164 62.5 286t178.5 185.5t255 63.5q157 0 264.5 -80.5t149.5 -225.5l-137 -32q-36 114 -105.5 166.5t-174.5 52.5q-121 0 -202.5 -58t-114.5 -156t-33 -202q0 -133 39 -233t121.5 -149.5t178.5 -49.5q117 0 197.5 67.5t109.5 199.5l139 -35 q-44 -171 -157.5 -261t-277.5 -90q-169 0 -275.5 69t-162 200t-55.5 282zM366 -293l7 84q46 -3 68 -3q67 0 94 19q21 14 21 35q0 13 -8 23t-30.5 17t-73.5 8l37 126h96l-24 -76q61 -7 92 -37.5t31 -67.5q0 -54 -51.5 -95t-155.5 -41q-59 0 -103 8z" />
<glyph unicode="&#xc8;" horiz-adv-x="978" d="M116 0v1050h759v-124h-620v-322h581v-123h-581v-357h644v-124h-783zM340 1314h172l97 -200h-104z" />
<glyph unicode="&#xc9;" horiz-adv-x="978" d="M116 0v1050h759v-124h-620v-322h581v-123h-581v-357h644v-124h-783zM402 1114l95 200h169l-157 -200h-107z" />
<glyph unicode="&#xca;" horiz-adv-x="978" d="M116 0v1050h759v-124h-620v-322h581v-123h-581v-357h644v-124h-783zM278 1114l155 200h137l161 -200h-146l-79 122l-81 -122h-147z" />
<glyph unicode="&#xcb;" horiz-adv-x="978" d="M116 0v1050h759v-124h-620v-322h581v-123h-581v-357h644v-124h-783zM305 1114v147h134v-147h-134zM572 1114v147h134v-147h-134z" />
<glyph unicode="&#xcc;" horiz-adv-x="407" d="M40 1314h172l97 -200h-104zM137 0v1050h139v-1050h-139z" />
<glyph unicode="&#xcd;" horiz-adv-x="407" d="M102 1114l95 200h169l-157 -200h-107zM137 0v1050h139v-1050h-139z" />
<glyph unicode="&#xce;" horiz-adv-x="407" d="M-22 1114l155 200h137l161 -200h-146l-79 122l-81 -122h-147zM137 0v1050h139v-1050h-139z" />
<glyph unicode="&#xcf;" horiz-adv-x="407" d="M4 1114v147h134v-147h-134zM137 0v1050h139v-1050h-139zM271 1114v147h134v-147h-134z" />
<glyph unicode="&#xd0;" horiz-adv-x="1059" d="M-2 478v94h115v478h362q122 0 187 -15q90 -21 154 -76q83 -70 124 -179t41 -249q0 -161 -51 -276.5t-122 -168t-163 -74.5q-51 -12 -153 -12h-379v478h-115zM252 124h224q105 0 163.5 19.5t92.5 53.5q50 49 78 132t28 203q0 123 -27.5 197t-72 118t-99 61.5t-166.5 17.5 h-221v-354h289v-94h-289v-354z" />
<glyph unicode="&#xd1;" horiz-adv-x="1059" d="M112 0v1050h142l552 -824v824h133v-1050h-143l-551 825v-825h-133zM308 1114q0 74 41 119q41 44 104 44q45 0 121 -39q43 -21 68 -21q23 0 35 12.5t17 49.5h93q-2 -81 -41 -122t-99 -41q-45 0 -119 40q-48 26 -70 26q-25 0 -40 -17q-15 -18 -15 -51h-95z" />
<glyph unicode="&#xd2;" horiz-adv-x="1141" d="M71 511q0 262 140.5 409.5t362.5 147.5q145 0 261.5 -69.5t178 -193.5t61.5 -282q0 -159 -64.5 -285t-182.5 -191t-255 -65q-148 0 -265 71.5t-177 195.5t-60 262zM214 509q0 -190 102 -299t256 -109q157 0 258.5 110t101.5 313q0 128 -43.5 223.5t-127 148.5t-187.5 53 q-147 0 -253.5 -101.5t-106.5 -338.5zM387 1314h172l97 -200h-104z" />
<glyph unicode="&#xd3;" horiz-adv-x="1141" d="M71 511q0 262 140.5 409.5t362.5 147.5q145 0 261.5 -69.5t178 -193.5t61.5 -282q0 -159 -64.5 -285t-182.5 -191t-255 -65q-148 0 -265 71.5t-177 195.5t-60 262zM214 509q0 -190 102 -299t256 -109q157 0 258.5 110t101.5 313q0 128 -43.5 223.5t-127 148.5t-187.5 53 q-147 0 -253.5 -101.5t-106.5 -338.5zM485 1114l95 200h169l-157 -200h-107z" />
<glyph unicode="&#xd4;" horiz-adv-x="1141" d="M71 511q0 262 140.5 409.5t362.5 147.5q145 0 261.5 -69.5t178 -193.5t61.5 -282q0 -159 -64.5 -285t-182.5 -191t-255 -65q-148 0 -265 71.5t-177 195.5t-60 262zM214 509q0 -190 102 -299t256 -109q157 0 258.5 110t101.5 313q0 128 -43.5 223.5t-127 148.5t-187.5 53 q-147 0 -253.5 -101.5t-106.5 -338.5zM343 1114l155 200h137l161 -200h-146l-79 122l-81 -122h-147z" />
<glyph unicode="&#xd5;" horiz-adv-x="1141" d="M71 511q0 262 140.5 409.5t362.5 147.5q145 0 261.5 -69.5t178 -193.5t61.5 -282q0 -159 -64.5 -285t-182.5 -191t-255 -65q-148 0 -265 71.5t-177 195.5t-60 262zM214 509q0 -190 102 -299t256 -109q157 0 258.5 110t101.5 313q0 128 -43.5 223.5t-127 148.5t-187.5 53 q-147 0 -253.5 -101.5t-106.5 -338.5zM334 1114q0 74 41 119q41 44 104 44q45 0 121 -39q43 -21 68 -21q23 0 35 12.5t17 49.5h93q-2 -81 -41 -122t-99 -41q-45 0 -119 40q-48 26 -70 26q-25 0 -40 -17q-15 -18 -15 -51h-95z" />
<glyph unicode="&#xd6;" horiz-adv-x="1141" d="M71 511q0 262 140.5 409.5t362.5 147.5q145 0 261.5 -69.5t178 -193.5t61.5 -282q0 -159 -64.5 -285t-182.5 -191t-255 -65q-148 0 -265 71.5t-177 195.5t-60 262zM214 509q0 -190 102 -299t256 -109q157 0 258.5 110t101.5 313q0 128 -43.5 223.5t-127 148.5t-187.5 53 q-147 0 -253.5 -101.5t-106.5 -338.5zM370 1114v147h134v-147h-134zM637 1114v147h134v-147h-134z" />
<glyph unicode="&#xd7;" horiz-adv-x="856" d="M115 293l226 225l-225 225l87 88l225 -225l224 224l86 -87l-223 -224l225 -225l-88 -87l-225 225l-225 -226z" />
<glyph unicode="&#xd8;" horiz-adv-x="1141" d="M59 18l126 141q-70 107 -93.5 182.5t-23.5 181.5q0 161 64.5 287.5t181 192t258.5 65.5q96 0 168 -25.5t155 -88.5l120 134l71 -60l-126 -142q62 -91 83 -160q29 -90 29 -202q0 -161 -65 -287t-183 -190.5t-250 -64.5q-99 0 -179 28q-62 22 -144 82l-121 -134zM211 525 q0 -83 16 -148q11 -48 48 -118l534 598q-67 53 -117.5 72.5t-118.5 19.5q-157 0 -259.5 -106.5t-102.5 -317.5zM336 188q55 -46 101 -63q61 -24 132 -24q156 0 258 110t102 310q0 148 -61 262z" />
<glyph unicode="&#xd9;" horiz-adv-x="1059" d="M115 443v607h139v-606q0 -137 25.5 -201.5t87.5 -100t151 -35.5q154 0 219 69.5t65 267.5v606h139v-607q0 -158 -36 -251t-129.5 -151.5t-244.5 -58.5q-148 0 -242 51t-134 147t-40 263zM343 1314h172l97 -200h-104z" />
<glyph unicode="&#xda;" horiz-adv-x="1059" d="M115 443v607h139v-606q0 -137 25.5 -201.5t87.5 -100t151 -35.5q154 0 219 69.5t65 267.5v606h139v-607q0 -158 -36 -251t-129.5 -151.5t-244.5 -58.5q-148 0 -242 51t-134 147t-40 263zM440 1114l95 200h169l-157 -200h-107z" />
<glyph unicode="&#xdb;" horiz-adv-x="1059" d="M115 443v607h139v-606q0 -137 25.5 -201.5t87.5 -100t151 -35.5q154 0 219 69.5t65 267.5v606h139v-607q0 -158 -36 -251t-129.5 -151.5t-244.5 -58.5q-148 0 -242 51t-134 147t-40 263zM299 1114l155 200h137l161 -200h-146l-79 122l-81 -122h-147z" />
<glyph unicode="&#xdc;" horiz-adv-x="1059" d="M115 443v607h139v-606q0 -137 25.5 -201.5t87.5 -100t151 -35.5q154 0 219 69.5t65 267.5v606h139v-607q0 -158 -36 -251t-129.5 -151.5t-244.5 -58.5q-148 0 -242 51t-134 147t-40 263zM325 1114v147h134v-147h-134zM592 1114v147h134v-147h-134z" />
<glyph unicode="&#xdd;" horiz-adv-x="978" d="M4 1050h169l207 -317q57 -89 107 -177q47 82 114 185l204 309h162l-419 -605v-445h-139v445zM397 1114l95 200h169l-157 -200h-107z" />
<glyph unicode="&#xde;" horiz-adv-x="978" d="M113 0v1050h139v-214h257q105 0 160 -10q78 -13 130 -49.5t83.5 -101.5t31.5 -143q0 -133 -85 -226t-308 -93h-269v-213h-139zM252 337h271q135 0 191.5 50t56.5 141q0 65 -33 112t-87 62q-35 10 -130 10h-269v-375z" />
<glyph unicode="&#xdf;" horiz-adv-x="896" d="M110 0v715q0 131 31.5 201.5t106 111t167.5 40.5q124 0 195 -62t71 -144q0 -36 -13 -75t-46 -96.5t-41.5 -80t-8.5 -39.5q0 -23 16 -45q15 -23 86 -70q98 -64 130 -102q46 -55 46 -131q0 -99 -73.5 -170t-187.5 -71q-91 0 -159 48.5t-101 124.5l111 51q35 -66 71 -92 t75 -26q55 0 93.5 37.5t38.5 87.5q0 40 -23 68q-15 19 -80 63q-119 82 -147 123t-28 84q0 28 9.5 56.5t46.5 91.5t48.5 94.5t11.5 55.5q0 45 -39 79t-105 34q-76 0 -125 -47.5t-49 -204.5v-710h-128z" />
<glyph unicode="&#xe0;" d="M53 200q0 56 25.5 102.5t66.5 74.5t93 42q38 10 114 19q156 19 230 45q1 26 1 33q0 79 -37 111q-49 44 -146 44q-91 0 -134.5 -32t-64.5 -113l-126 17q17 81 56.5 131t114 77t172.5 27t158.5 -23t89.5 -58t40 -88q6 -33 6 -119v-171q0 -180 8.5 -227.5t32.5 -91.5h-134 q-20 40 -26 94q-72 -61 -138 -86t-142 -25q-125 0 -192.5 61t-67.5 156zM190 204q0 -51 39.5 -85.5t114.5 -34.5q74 0 132 32.5t85 88.5q21 44 21 129v48q-70 -29 -210 -49q-80 -12 -113 -26t-51 -41.5t-18 -61.5zM243 1055h172l97 -200h-104z" />
<glyph unicode="&#xe1;" d="M53 200q0 56 25.5 102.5t66.5 74.5t93 42q38 10 114 19q156 19 230 45q1 26 1 33q0 79 -37 111q-49 44 -146 44q-91 0 -134.5 -32t-64.5 -113l-126 17q17 81 56.5 131t114 77t172.5 27t158.5 -23t89.5 -58t40 -88q6 -33 6 -119v-171q0 -180 8.5 -227.5t32.5 -91.5h-134 q-20 40 -26 94q-72 -61 -138 -86t-142 -25q-125 0 -192.5 61t-67.5 156zM190 204q0 -51 39.5 -85.5t114.5 -34.5q74 0 132 32.5t85 88.5q21 44 21 129v48q-70 -29 -210 -49q-80 -12 -113 -26t-51 -41.5t-18 -61.5zM332 855l95 200h169l-157 -200h-107z" />
<glyph unicode="&#xe2;" d="M53 200q0 56 25.5 102.5t66.5 74.5t93 42q38 10 114 19q156 19 230 45q1 26 1 33q0 79 -37 111q-49 44 -146 44q-91 0 -134.5 -32t-64.5 -113l-126 17q17 81 56.5 131t114 77t172.5 27t158.5 -23t89.5 -58t40 -88q6 -33 6 -119v-171q0 -180 8.5 -227.5t32.5 -91.5h-134 q-20 40 -26 94q-72 -61 -138 -86t-142 -25q-125 0 -192.5 61t-67.5 156zM177 855l155 200h137l161 -200h-146l-79 122l-81 -122h-147zM190 204q0 -51 39.5 -85.5t114.5 -34.5q74 0 132 32.5t85 88.5q21 44 21 129v48q-70 -29 -210 -49q-80 -12 -113 -26t-51 -41.5t-18 -61.5 z" />
<glyph unicode="&#xe3;" d="M53 200q0 56 25.5 102.5t66.5 74.5t93 42q38 10 114 19q156 19 230 45q1 26 1 33q0 79 -37 111q-49 44 -146 44q-91 0 -134.5 -32t-64.5 -113l-126 17q17 81 56.5 131t114 77t172.5 27t158.5 -23t89.5 -58t40 -88q6 -33 6 -119v-171q0 -180 8.5 -227.5t32.5 -91.5h-134 q-20 40 -26 94q-72 -61 -138 -86t-142 -25q-125 0 -192.5 61t-67.5 156zM164 873q0 74 41 119q41 44 104 44q45 0 121 -39q43 -21 68 -21q23 0 35 12.5t17 49.5h93q-2 -81 -41 -122t-99 -41q-45 0 -119 40q-48 26 -70 26q-25 0 -40 -17q-15 -18 -15 -51h-95zM190 204 q0 -51 39.5 -85.5t114.5 -34.5q74 0 132 32.5t85 88.5q21 44 21 129v48q-70 -29 -210 -49q-80 -12 -113 -26t-51 -41.5t-18 -61.5z" />
<glyph unicode="&#xe4;" d="M53 200q0 56 25.5 102.5t66.5 74.5t93 42q38 10 114 19q156 19 230 45q1 26 1 33q0 79 -37 111q-49 44 -146 44q-91 0 -134.5 -32t-64.5 -113l-126 17q17 81 56.5 131t114 77t172.5 27t158.5 -23t89.5 -58t40 -88q6 -33 6 -119v-171q0 -180 8.5 -227.5t32.5 -91.5h-134 q-20 40 -26 94q-72 -61 -138 -86t-142 -25q-125 0 -192.5 61t-67.5 156zM190 204q0 -51 39.5 -85.5t114.5 -34.5q74 0 132 32.5t85 88.5q21 44 21 129v48q-70 -29 -210 -49q-80 -12 -113 -26t-51 -41.5t-18 -61.5zM203 909v147h134v-147h-134zM470 909v147h134v-147h-134z " />
<glyph unicode="&#xe5;" d="M53 200q0 56 25.5 102.5t66.5 74.5t93 42q38 10 114 19q156 19 230 45q1 26 1 33q0 79 -37 111q-49 44 -146 44q-91 0 -134.5 -32t-64.5 -113l-126 17q17 81 56.5 131t114 77t172.5 27t158.5 -23t89.5 -58t40 -88q6 -33 6 -119v-171q0 -180 8.5 -227.5t32.5 -91.5h-134 q-20 40 -26 94q-72 -61 -138 -86t-142 -25q-125 0 -192.5 61t-67.5 156zM190 204q0 -51 39.5 -85.5t114.5 -34.5q74 0 132 32.5t85 88.5q21 44 21 129v48q-70 -29 -210 -49q-80 -12 -113 -26t-51 -41.5t-18 -61.5zM274 958q0 52 38.5 90t90.5 38q53 0 91 -38t38 -93t-38 -93 t-90 -38q-54 0 -92 38.5t-38 95.5zM328 956q0 -32 23 -55t53 -24q31 1 53.5 24t22.5 54q0 33 -22 56t-54 22q-30 1 -53 -21.5t-23 -55.5z" />
<glyph unicode="&#xe6;" horiz-adv-x="1304" d="M49 200q0 62 35.5 116t98.5 82t202 46q108 14 181 35v29q0 91 -37.5 127t-131.5 36q-62 0 -105 -15t-63.5 -42.5t-33.5 -88.5l-126 15q21 84 58.5 133t107.5 77t164 28q119 0 192 -36q43 -21 71 -67q46 50 104 76.5t140 26.5q116 0 192 -56.5t111 -149t35 -181.5 q0 -14 -1 -44h-549q1 -103 25 -149.5t76.5 -77.5t115.5 -31q74 0 125.5 42t70.5 119l135 -17q-36 -120 -122 -185t-214 -65q-90 0 -158.5 34.5t-123.5 107.5q-75 -73 -151 -107.5t-164 -34.5q-124 0 -192 63.5t-68 153.5zM185 205q0 -51 38 -86t111 -35q82 0 143 41t80 102 q11 37 11 155q-57 -25 -231 -53q-78 -12 -109 -36q-43 -34 -43 -88zM694 453h418q-10 113 -64.5 165.5t-141.5 52.5q-90 0 -148 -57.5t-64 -160.5z" />
<glyph unicode="&#xe7;" horiz-adv-x="733" d="M57 377q0 123 41 215.5t124.5 139t181.5 46.5q124 0 202.5 -63t100.5 -178l-125 -19q-18 76 -63.5 115t-109.5 39q-98 0 -158.5 -70t-60.5 -221q0 -153 58.5 -222.5t153.5 -69.5q76 0 126.5 46.5t64.5 143.5l127 -17q-21 -131 -106.5 -205t-210.5 -74q-156 0 -251 102 t-95 292zM217 -279l7 84q46 -3 68 -3q67 0 94 19q21 14 21 35q0 13 -8 23t-30.5 17t-73.5 8l37 126h96l-24 -76q61 -7 92 -37.5t31 -67.5q0 -54 -51.5 -95t-155.5 -41q-59 0 -103 8z" />
<glyph unicode="&#xe8;" d="M54 374q0 192 98.5 298t256.5 106q152 0 249 -104t97 -292q0 -12 -1 -35h-567q7 -125 70.5 -191.5t159.5 -66.5q71 0 121 37t79 119l133 -17q-31 -116 -116.5 -180.5t-217.5 -64.5q-167 0 -264.5 102.5t-97.5 288.5zM194 453h425q-9 96 -49 144q-62 75 -160 75 q-89 0 -149.5 -59.5t-66.5 -159.5zM222 1055h172l97 -200h-104z" />
<glyph unicode="&#xe9;" d="M54 374q0 192 98.5 298t256.5 106q152 0 249 -104t97 -292q0 -12 -1 -35h-567q7 -125 70.5 -191.5t159.5 -66.5q71 0 121 37t79 119l133 -17q-31 -116 -116.5 -180.5t-217.5 -64.5q-167 0 -264.5 102.5t-97.5 288.5zM194 453h425q-9 96 -49 144q-62 75 -160 75 q-89 0 -149.5 -59.5t-66.5 -159.5zM333 855l95 200h169l-157 -200h-107z" />
<glyph unicode="&#xea;" d="M54 374q0 192 98.5 298t256.5 106q152 0 249 -104t97 -292q0 -12 -1 -35h-567q7 -125 70.5 -191.5t159.5 -66.5q71 0 121 37t79 119l133 -17q-31 -116 -116.5 -180.5t-217.5 -64.5q-167 0 -264.5 102.5t-97.5 288.5zM178 855l155 200h137l161 -200h-146l-79 122l-81 -122 h-147zM194 453h425q-9 96 -49 144q-62 75 -160 75q-89 0 -149.5 -59.5t-66.5 -159.5z" />
<glyph unicode="&#xeb;" d="M54 374q0 192 98.5 298t256.5 106q152 0 249 -104t97 -292q0 -12 -1 -35h-567q7 -125 70.5 -191.5t159.5 -66.5q71 0 121 37t79 119l133 -17q-31 -116 -116.5 -180.5t-217.5 -64.5q-167 0 -264.5 102.5t-97.5 288.5zM194 453h425q-9 96 -49 144q-62 75 -160 75 q-89 0 -149.5 -59.5t-66.5 -159.5zM204 909v147h134v-147h-134zM471 909v147h134v-147h-134z" />
<glyph unicode="&#xec;" horiz-adv-x="407" d="M26 1055h172l97 -200h-104zM142 0v760h129v-760h-129z" />
<glyph unicode="&#xed;" horiz-adv-x="407" d="M136 855l95 200h169l-157 -200h-107zM142 0v760h129v-760h-129z" />
<glyph unicode="&#xee;" horiz-adv-x="407" d="M-11 855l155 200h137l161 -200h-146l-79 122l-81 -122h-147zM142 0v760h129v-760h-129z" />
<glyph unicode="&#xef;" horiz-adv-x="407" d="M8 909v147h134v-147h-134zM142 0v760h129v-760h-129zM275 909v147h134v-147h-134z" />
<glyph unicode="&#xf0;" d="M52 370q0 187 92.5 288.5t231.5 101.5q41 0 72.5 -8.5t79.5 -33.5q-26 52 -45.5 81t-56.5 72l-197 -91l-31 73l171 79q-70 64 -148 118h155q51 -39 89 -73l154 73l32 -73l-123 -60q229 -263 229 -544q0 -181 -99.5 -286t-253.5 -105q-183 0 -285 139q-67 91 -67 249z M184 367q0 -139 62.5 -209.5t156.5 -70.5q92 0 156 74.5t64 217.5q0 137 -65 210t-159 73q-93 0 -154 -73t-61 -222z" />
<glyph unicode="&#xf1;" d="M97 0v760h116v-108q83 126 242 126q68 0 126 -25t86.5 -65t39.5 -95q8 -36 8 -125v-468h-129v463q0 78 -15 117t-53.5 62.5t-90.5 23.5q-82 0 -141.5 -52.5t-59.5 -198.5v-415h-129zM188 873q0 74 41 119q41 44 104 44q45 0 121 -39q43 -21 68 -21q23 0 35 12.5t17 49.5 h93q-2 -81 -41 -122t-99 -41q-45 0 -119 40q-48 26 -70 26q-25 0 -40 -17q-15 -18 -15 -51h-95z" />
<glyph unicode="&#xf2;" d="M49 380q0 211 117 313q98 85 239 85q157 0 256.5 -103t99.5 -284q0 -147 -44 -231t-128 -130.5t-184 -46.5q-159 0 -257.5 102.5t-98.5 294.5zM181 380q0 -146 64 -218.5t160 -72.5t160 73t64 222q0 142 -64.5 214.5t-159.5 72.5q-96 0 -160 -72.5t-64 -218.5zM223 1055 h172l97 -200h-104z" />
<glyph unicode="&#xf3;" d="M49 380q0 211 117 313q98 85 239 85q157 0 256.5 -103t99.5 -284q0 -147 -44 -231t-128 -130.5t-184 -46.5q-159 0 -257.5 102.5t-98.5 294.5zM181 380q0 -146 64 -218.5t160 -72.5t160 73t64 222q0 142 -64.5 214.5t-159.5 72.5q-96 0 -160 -72.5t-64 -218.5zM334 855 l95 200h169l-157 -200h-107z" />
<glyph unicode="&#xf4;" d="M49 380q0 211 117 313q98 85 239 85q157 0 256.5 -103t99.5 -284q0 -147 -44 -231t-128 -130.5t-184 -46.5q-159 0 -257.5 102.5t-98.5 294.5zM178 855l155 200h137l161 -200h-146l-79 122l-81 -122h-147zM181 380q0 -146 64 -218.5t160 -72.5t160 73t64 222 q0 142 -64.5 214.5t-159.5 72.5q-96 0 -160 -72.5t-64 -218.5z" />
<glyph unicode="&#xf5;" d="M49 380q0 211 117 313q98 85 239 85q157 0 256.5 -103t99.5 -284q0 -147 -44 -231t-128 -130.5t-184 -46.5q-159 0 -257.5 102.5t-98.5 294.5zM165 873q0 74 41 119q41 44 104 44q45 0 121 -39q43 -21 68 -21q23 0 35 12.5t17 49.5h93q-2 -81 -41 -122t-99 -41 q-45 0 -119 40q-48 26 -70 26q-25 0 -40 -17q-15 -18 -15 -51h-95zM181 380q0 -146 64 -218.5t160 -72.5t160 73t64 222q0 142 -64.5 214.5t-159.5 72.5q-96 0 -160 -72.5t-64 -218.5z" />
<glyph unicode="&#xf6;" d="M49 380q0 211 117 313q98 85 239 85q157 0 256.5 -103t99.5 -284q0 -147 -44 -231t-128 -130.5t-184 -46.5q-159 0 -257.5 102.5t-98.5 294.5zM181 380q0 -146 64 -218.5t160 -72.5t160 73t64 222q0 142 -64.5 214.5t-159.5 72.5q-96 0 -160 -72.5t-64 -218.5zM204 909 v147h134v-147h-134zM471 909v147h134v-147h-134z" />
<glyph unicode="&#xf7;" horiz-adv-x="805" d="M56 458v120h693v-120h-693zM329 228v147h146v-147h-146zM329 660v147h146v-147h-146z" />
<glyph unicode="&#xf8;" horiz-adv-x="896" d="M92 369q0 216 105.5 312.5t247.5 96.5q58 0 107.5 -15t105.5 -48l71 92l69 -50l-77 -99q45 -62 62 -112q22 -71 22 -167q0 -214 -121 -315q-98 -81 -236 -81q-114 0 -202 57l-75 -97l-67 51l77 101q-42 49 -60 98q-29 78 -29 176zM225 380q0 -107 37 -180l324 421 q-65 50 -137 50q-95 0 -159.5 -73t-64.5 -218zM318 134q56 -45 126 -45q99 0 164 73t65 219q0 54 -9 95q-5 30 -25 75z" />
<glyph unicode="&#xf9;" d="M94 289v471h129v-421q0 -101 8 -136q12 -51 51 -80t97 -29t109 29.5t72 81t21 148.5v407h129v-760h-115v112q-89 -129 -241 -129q-68 0 -126 25.5t-86.5 64.5t-39.5 96q-8 38 -8 120zM252 1055h172l97 -200h-104z" />
<glyph unicode="&#xfa;" d="M94 289v471h129v-421q0 -101 8 -136q12 -51 51 -80t97 -29t109 29.5t72 81t21 148.5v407h129v-760h-115v112q-89 -129 -241 -129q-68 0 -126 25.5t-86.5 64.5t-39.5 96q-8 38 -8 120zM324 855l95 200h169l-157 -200h-107z" />
<glyph unicode="&#xfb;" d="M94 289v471h129v-421q0 -101 8 -136q12 -51 51 -80t97 -29t109 29.5t72 81t21 148.5v407h129v-760h-115v112q-89 -129 -241 -129q-68 0 -126 25.5t-86.5 64.5t-39.5 96q-8 38 -8 120zM176 855l155 200h137l161 -200h-146l-79 122l-81 -122h-147z" />
<glyph unicode="&#xfc;" d="M94 289v471h129v-421q0 -101 8 -136q12 -51 51 -80t97 -29t109 29.5t72 81t21 148.5v407h129v-760h-115v112q-89 -129 -241 -129q-68 0 -126 25.5t-86.5 64.5t-39.5 96q-8 38 -8 120zM202 909v147h134v-147h-134zM469 909v147h134v-147h-134z" />
<glyph unicode="&#xfd;" horiz-adv-x="733" d="M24 760h139l158 -440q31 -84 55 -176q22 89 53 173l162 443h129l-289 -773q-47 -125 -72 -172q-35 -64 -79 -94t-106 -30q-37 0 -83 16l-14 121q42 -11 73 -11q43 0 69 14t42 40q13 19 40 96q3 11 11 32zM301 855l95 200h169l-157 -200h-107z" />
<glyph unicode="&#xfe;" d="M97 -291v1341h129v-370q52 55 91 73q52 25 118 25q97 0 171.5 -50.5t112.5 -141.5t38 -200q0 -117 -42 -210.5t-122 -143t-167 -49.5q-59 0 -110 23q-39 19 -90 73v-370h-129zM213 376q0 -147 59.5 -217t144.5 -70q86 0 147 72.5t61 225.5q0 145 -60 217.5t-143 72.5 q-82 0 -145.5 -77t-63.5 -224z" />
<glyph unicode="&#xff;" horiz-adv-x="733" d="M24 760h139l158 -440q31 -84 55 -176q22 89 53 173l162 443h129l-289 -773q-47 -125 -72 -172q-35 -64 -79 -94t-106 -30q-37 0 -83 16l-14 121q42 -11 73 -11q43 0 69 14t42 40q13 19 40 96q3 11 11 32zM174 909v147h134v-147h-134zM441 909v147h134v-147h-134z" />
<glyph unicode="&#x152;" horiz-adv-x="1466" d="M92 526q0 231 102 386.5t322 155.5q189 0 287 -160v142h595v-124h-466v-321h429v-123h-429v-358h488v-124h-617v152q-97 -170 -287 -170q-215 0 -326 166q-98 147 -98 378zM236 516q0 -217 82.5 -319.5t197.5 -102.5t197 102t82 337q0 220 -83 321t-196 101 q-73 0 -141.5 -46.5t-103.5 -141.5t-35 -251z" />
<glyph unicode="&#x153;" horiz-adv-x="1384" d="M59 371q0 121 41.5 216.5t127.5 143t190 47.5q99 0 172.5 -41.5t109.5 -104.5q46 67 118 106.5t161 39.5q157 0 254 -108.5t97 -323.5h-562q2 -119 66.5 -188t160.5 -69q70 0 121.5 39.5t74.5 119.5l129 -19q-31 -118 -115 -182t-213 -64q-96 0 -171.5 37.5t-120.5 104.5 q-54 -71 -125 -106.5t-158 -35.5q-161 0 -259.5 102.5t-98.5 285.5zM191 382q0 -134 51 -203q66 -90 171 -90q92 0 158 76t66 218t-64.5 215.5t-159.5 73.5q-62 0 -114.5 -35.5t-80 -104t-27.5 -150.5zM773 452h421q-9 108 -66 164t-141 56q-86 0 -146 -59t-68 -161z" />
<glyph unicode="&#x178;" horiz-adv-x="978" d="M4 1050h169l207 -317q57 -89 107 -177q47 82 114 185l204 309h162l-419 -605v-445h-139v445zM285 1114v147h134v-147h-134zM552 1114v147h134v-147h-134z" />
<glyph unicode="&#x2c6;" horiz-adv-x="488" d="M18 855l155 200h137l161 -200h-146l-79 122l-81 -122h-147z" />
<glyph unicode="&#x2dc;" horiz-adv-x="488" d="M5 873q0 74 41 119q41 44 104 44q45 0 121 -39q43 -21 68 -21q23 0 35 12.5t17 49.5h93q-2 -81 -41 -122t-99 -41q-45 0 -119 40q-48 26 -70 26q-25 0 -40 -17q-15 -18 -15 -51h-95z" />
<glyph unicode="&#x2000;" horiz-adv-x="682" />
<glyph unicode="&#x2001;" horiz-adv-x="1365" />
<glyph unicode="&#x2002;" horiz-adv-x="682" />
<glyph unicode="&#x2003;" horiz-adv-x="1365" />
<glyph unicode="&#x2004;" horiz-adv-x="455" />
<glyph unicode="&#x2005;" horiz-adv-x="341" />
<glyph unicode="&#x2006;" horiz-adv-x="227" />
<glyph unicode="&#x2007;" horiz-adv-x="227" />
<glyph unicode="&#x2008;" horiz-adv-x="170" />
<glyph unicode="&#x2009;" horiz-adv-x="273" />
<glyph unicode="&#x200a;" horiz-adv-x="75" />
<glyph unicode="&#x2010;" horiz-adv-x="488" d="M47 315v130h395v-130h-395z" />
<glyph unicode="&#x2011;" horiz-adv-x="488" d="M47 315v130h395v-130h-395z" />
<glyph unicode="&#x2012;" horiz-adv-x="488" d="M47 315v130h395v-130h-395z" />
<glyph unicode="&#x2013;" d="M-3 328v104h816v-104h-816z" />
<glyph unicode="&#x2014;" horiz-adv-x="1466" d="M0 328v104h1466v-104h-1466z" />
<glyph unicode="&#x2018;" horiz-adv-x="326" d="M92 724v118q0 96 23 139q30 57 95 87l31 -51q-39 -16 -57.5 -48.5t-20.5 -94.5h67v-150h-138z" />
<glyph unicode="&#x2019;" horiz-adv-x="326" d="M77 768q39 15 58 49t21 94h-67v149h138v-118q0 -96 -22 -138q-31 -58 -96 -87z" />
<glyph unicode="&#x201a;" horiz-adv-x="326" d="M77 -143q39 16 58 50t21 93h-67v150h138v-118q0 -96 -22 -139q-31 -58 -96 -87z" />
<glyph unicode="&#x201c;" horiz-adv-x="488" d="M59 724v118q0 96 23 139q30 57 96 87l31 -51q-39 -16 -58 -48.5t-21 -94.5h68v-150h-139zM281 724v118q0 96 23 139q30 57 96 87l31 -51q-39 -16 -58 -48.5t-21 -94.5h68v-150h-139z" />
<glyph unicode="&#x201d;" horiz-adv-x="488" d="M51 768q39 15 57.5 49t21.5 94h-68v149h138v-118q0 -96 -22 -138q-31 -58 -96 -87zM273 768q38 15 57 49t22 94h-68v149h138v-118q0 -96 -22 -138q-31 -58 -96 -87z" />
<glyph unicode="&#x201e;" horiz-adv-x="488" d="M51 -143q39 16 57.5 50t21.5 93h-68v150h138v-118q0 -96 -22 -139q-31 -58 -96 -87zM273 -143q38 16 57 50t22 93h-68v150h138v-118q0 -96 -22 -139q-31 -58 -96 -87z" />
<glyph unicode="&#x2022;" horiz-adv-x="513" d="M78 514q0 75 53.5 128t127.5 53q75 0 128.5 -53t53.5 -128t-53.5 -128.5t-128.5 -53.5q-74 0 -127.5 53.5t-53.5 128.5z" />
<glyph unicode="&#x2026;" horiz-adv-x="1466" d="M171 0v147h147v-147h-147zM660 0v147h147v-147h-147zM1148 0v147h148v-147h-148z" />
<glyph unicode="&#x202f;" horiz-adv-x="273" />
<glyph unicode="&#x2039;" horiz-adv-x="488" d="M66 377l225 328h107l-190 -328l190 -325h-107z" />
<glyph unicode="&#x203a;" horiz-adv-x="488" d="M66 52l190 327l-190 326h107l217 -321l-217 -332h-107z" />
<glyph unicode="&#x205f;" horiz-adv-x="341" />
<glyph unicode="&#x20ac;" d="M-20 383l20 96h75q-2 30 -2 65q0 14 1 30h-94l20 95h83q44 234 231 336q116 63 255 63q133 0 224 -58l-29 -134q-87 73 -198 73q-121 0 -202 -58q-49 -35 -88 -98q-40 -65 -48 -124h489l-20 -95h-480q-1 -16 -1 -29q0 -55 1 -66h461l-20 -96h-426q30 -164 145 -233 q82 -49 178 -49q134 0 209 70v-147q-90 -42 -198 -42q-323 0 -437 269q-23 55 -39 132h-110z" />
<glyph unicode="&#x2122;" horiz-adv-x="1466" d="M161 963v87h477v-87h-190v-497h-98v497h-189zM703 466v584h143l148 -466l142 466h141v-584h-89v490l-151 -490h-88l-156 497v-497h-90z" />
</font>
</defs>
</svg>
