<?xml version="1.0" standalone="no"?>
<!DOCTYPE svg PUBLIC "-//W3C//DTD SVG 1.1//EN" "http://www.w3.org/Graphics/SVG/1.1/DTD/svg11.dtd" >
<svg xmlns="http://www.w3.org/2000/svg">
<metadata></metadata>
<defs>
<font id="utsaahbold" horiz-adv-x="816" >
<font-face units-per-em="2048" ascent="1638" descent="-410" />
<missing-glyph horiz-adv-x="407" />
<glyph horiz-adv-x="2048" />
<glyph horiz-adv-x="2048" />
<glyph unicode="&#xd;" horiz-adv-x="2048" />
<glyph unicode=" "  horiz-adv-x="407" />
<glyph unicode="&#x09;" horiz-adv-x="407" />
<glyph unicode="&#xa0;" horiz-adv-x="407" />
<glyph unicode="!" horiz-adv-x="488" d="M132 803v247h217v-247l-51 -532h-114zM140 0v201h202v-201h-202z" />
<glyph unicode="&#x22;" horiz-adv-x="695" d="M80 872v178h219v-178l-33 -195h-148zM403 872v178h219v-178l-33 -195h-148z" />
<glyph unicode="#" d="M13 261v158h129l43 211h-172v158h204l57 280h160l-57 -280h159l55 280h166l-57 -280h98v-158h-131l-43 -211h174v-158h-206l-56 -279h-160l55 279h-159l-56 -279h-162l56 279h-97zM304 419h159l41 211h-158z" />
<glyph unicode="$" d="M50 294l187 20q11 -57 42.5 -98.5t70.5 -60.5v300q-140 40 -205.5 121.5t-65.5 197.5q0 117 74 197t197 92v71h104v-71q114 -13 181 -77.5t86 -171.5l-181 -24q-17 85 -86 115v-280q172 -46 234 -120.5t62 -190.5q0 -129 -78 -218t-218 -109v-134h-104v131 q-124 15 -201 92t-99 218zM258 783q0 -38 23 -71t69 -53v248q-42 -14 -67 -48.5t-25 -75.5zM454 145q54 10 87.5 50t33.5 94q0 48 -28.5 82.5t-92.5 53.5v-280z" />
<glyph unicode="%" horiz-adv-x="1304" d="M64 790q0 142 62 210t168 68q109 0 171 -68t62 -210q0 -141 -62 -209t-168 -68q-109 0 -171 68t-62 209zM221 792q0 -102 23 -138q18 -25 50 -25t50 25q23 36 23 138t-23 137q-18 26 -50 26t-50 -26q-23 -35 -23 -137zM298 -40l559 1108h145l-555 -1108h-149zM772 236 q0 141 62 209t169 68q108 0 170 -68t62 -209q0 -142 -62 -210t-168 -68q-109 0 -171 68t-62 210zM929 236q0 -102 23 -136q18 -27 50 -27t49 26q24 35 24 137q0 103 -23 138q-18 26 -50 26q-33 0 -50 -26q-23 -35 -23 -138z" />
<glyph unicode="&#x26;" horiz-adv-x="1059" d="M64 288q0 101 60.5 181.5t179.5 139.5q-53 64 -80.5 121.5t-27.5 109.5q0 95 76.5 161.5t217.5 66.5q136 0 212.5 -69.5t76.5 -170.5q0 -63 -38 -120.5t-153 -129.5l146 -193q26 46 44 120l182 -42q-27 -96 -47 -141t-43 -75q34 -31 87 -69t78 -50l-121 -155 q-90 43 -172 120q-64 -57 -135.5 -84.5t-170.5 -27.5q-196 0 -295 111q-77 85 -77 196zM271 295q0 -65 42.5 -106.5t113.5 -41.5q48 0 91.5 19t95.5 62l-205 252q-70 -35 -104 -84t-34 -101zM392 846q0 -37 46 -90l50 -57l54 41q60 47 60 93q0 38 -29 65.5t-78 27.5 q-48 0 -75.5 -24t-27.5 -56z" />
<glyph unicode="'" horiz-adv-x="349" d="M66 872v178h219v-178l-33 -195h-148z" />
<glyph unicode="(" horiz-adv-x="488" d="M77 380q0 207 70 392q62 160 157 296h137q-98 -217 -135 -369.5t-37 -322.5q0 -118 22 -241t60 -234q25 -73 88 -210h-138q-110 166 -167 344t-57 345z" />
<glyph unicode=")" horiz-adv-x="488" d="M48 1068h137q108 -154 167.5 -326.5t59.5 -350.5q0 -150 -47 -321q-54 -192 -177 -379h-139q60 128 84.5 196t45 156.5t30.5 168.5t10 164q0 170 -36.5 322.5t-134.5 369.5z" />
<glyph unicode="*" horiz-adv-x="571" d="M20 835l42 126q94 -38 168 -84q-17 117 -17 191h127q0 -53 -19 -192q14 5 61 28q65 29 119 50l38 -130q-79 -18 -184 -35l86 -97q26 -29 41 -48l-110 -72l-96 160q-44 -78 -101 -165l-108 84q52 58 108 111q22 21 28 27q-18 3 -103 24q-61 15 -80 22z" />
<glyph unicode="+" horiz-adv-x="856" d="M61 424v188h275v273h183v-273h276v-188h-276v-273h-183v273h-275z" />
<glyph unicode="," horiz-adv-x="407" d="M84 -151q61 20 86.5 55t27.5 96h-98v201h201v-144q0 -87 -15 -137.5t-56.5 -90.5t-106.5 -63z" />
<glyph unicode="-" horiz-adv-x="488" d="M82 280v201h396v-201h-396z" />
<glyph unicode="." horiz-adv-x="407" d="M105 0v201h201v-201h-201z" />
<glyph unicode="/" horiz-adv-x="407" d="M-2 -18l260 1086h151l-263 -1086h-148z" />
<glyph unicode="0" d="M62 520q0 296 103 427q85 107 237 107q153 0 239 -109q102 -129 102 -427t-103 -428q-85 -108 -238 -108t-246.5 118t-93.5 420zM272 518q0 -185 18.5 -254t47 -92t64.5 -23q37 0 65.5 23t44.5 84q21 77 21 262q0 184 -19 253.5t-47 92.5t-65 23q-36 0 -64.5 -23 t-44.5 -84q-21 -78 -21 -262z" />
<glyph unicode="1" d="M116 606v182q79 26 171 98t127 168h163v-1054h-201v758q-110 -103 -260 -152z" />
<glyph unicode="2" d="M37 0q11 106 68.5 201t226.5 252q136 126 166 171q42 63 42 124q0 67 -36 103t-100 36q-63 0 -100.5 -38t-42.5 -126l-201 20q18 166 112.5 238.5t236.5 72.5q155 0 244 -84t89 -208q0 -71 -25.5 -135t-80.5 -134q-37 -47 -132 -134.5t-120.5 -116t-41.5 -55.5h400v-187 h-705z" />
<glyph unicode="3" d="M55 279l195 23q9 -74 50 -113.5t99 -39.5q62 0 104.5 47t42.5 128q0 76 -40.5 120t-99.5 44q-39 0 -92 -15l22 164q81 -2 124 35.5t43 100.5q0 53 -31.5 84.5t-83.5 31.5q-51 0 -88 -36t-44 -105l-186 32q20 95 59 152t108.5 89.5t156.5 32.5q148 0 238 -95 q73 -77 73 -174q0 -138 -151 -221q90 -19 144.5 -86.5t54.5 -162.5q0 -138 -101 -235.5t-252 -97.5q-142 0 -236 82t-109 215z" />
<glyph unicode="4" d="M27 211v176l456 667h169v-666h130v-177h-130v-211h-195v211h-430zM216 388h241v359z" />
<glyph unicode="5" d="M65 270l201 21q8 -68 50.5 -108t97.5 -40q63 0 106.5 51.5t43.5 154.5q0 96 -43 144.5t-113 48.5q-87 0 -155 -77l-163 24l103 546h532v-188h-380l-31 -178q67 33 137 33q134 0 227 -97t93 -253q0 -129 -75 -231q-102 -139 -284 -139q-146 0 -237.5 78t-109.5 210z" />
<glyph unicode="6" d="M62 511q0 288 107 415.5t277 127.5q120 0 198 -67t100 -194l-195 -22q-7 60 -37 89t-78 29q-64 0 -108 -57.5t-55 -238.5q75 89 187 89q126 0 215.5 -96t89.5 -248q0 -161 -94.5 -258.5t-242.5 -97.5q-159 0 -261.5 123.5t-102.5 405.5zM288 354q0 -98 45 -151.5 t103 -53.5q56 0 93 43.5t37 143.5q0 102 -40 149.5t-100 47.5q-58 0 -98 -45.5t-40 -133.5z" />
<glyph unicode="7" d="M62 848v187h688v-146q-85 -83 -173 -240t-134 -333.5t-46 -315.5h-194q5 218 90 444t227 404h-458z" />
<glyph unicode="8" d="M59 300q0 85 42.5 156.5t133.5 109.5q-78 33 -113.5 91t-35.5 126q0 118 82 194.5t233 76.5q150 0 232.5 -76.5t82.5 -194.5q0 -73 -38 -130t-107 -87q88 -35 133.5 -102t45.5 -155q0 -146 -93 -237t-247 -91q-143 0 -238 76q-113 88 -113 243zM258 319 q0 -83 42.5 -129.5t106.5 -46.5q62 0 103 45t41 129q0 74 -41.5 118.5t-105.5 44.5q-74 0 -110 -50.5t-36 -110.5zM276 769q0 -60 34 -93.5t91 -33.5t91.5 34t34.5 94q0 56 -34 90t-90 34q-58 0 -92.5 -34t-34.5 -91z" />
<glyph unicode="9" d="M47 699q0 159 94.5 257t241.5 98q160 0 262.5 -123.5t102.5 -406.5q0 -288 -107 -415.5t-278 -127.5q-123 0 -199 65.5t-97 196.5l194 21q8 -59 38 -88t79 -29q62 0 106 57.5t56 237.5q-76 -88 -190 -88q-124 0 -213.5 96t-89.5 249zM244 699q0 -102 40 -149.5t100 -47.5 q58 0 98 46t40 134q0 98 -45 151.5t-103 53.5q-56 0 -93 -44t-37 -144z" />
<glyph unicode=":" horiz-adv-x="488" d="M144 0v201h201v-201h-201zM144 559v201h201v-201h-201z" />
<glyph unicode=";" horiz-adv-x="488" d="M122 -151q61 20 86.5 56t27.5 95h-98v201h201v-144q0 -87 -15 -137.5t-56.5 -90.5t-106.5 -63zM138 559v201h201v-201h-201z" />
<glyph unicode="&#x3c;" horiz-adv-x="856" d="M68 432v174l720 311v-204l-502 -192l502 -199v-202z" />
<glyph unicode="=" horiz-adv-x="856" d="M61 266v186h734v-186h-734zM61 584v185h734v-185h-734z" />
<glyph unicode="&#x3e;" horiz-adv-x="856" d="M68 119v202l503 198l-503 196v201l720 -312v-172z" />
<glyph unicode="?" horiz-adv-x="896" d="M76 753q8 128 109 217.5t266 89.5q173 0 275.5 -90.5t102.5 -210.5q0 -67 -37.5 -126t-160.5 -162q-64 -53 -79.5 -85t-13.5 -115h-183q-1 39 -1 48q0 88 29.5 145.5t117.5 129t105 93.5q27 35 27 78q0 58 -47 100t-126 42q-77 0 -128.5 -43.5t-70.5 -133.5zM355 0v201 h201v-201h-201z" />
<glyph unicode="@" horiz-adv-x="1430" d="M44 346q0 201 95 374.5t260.5 260.5t378.5 87q180 0 320.5 -70t214.5 -199.5t74 -282.5q0 -182 -113 -330q-141 -186 -361 -186q-60 0 -90 21t-40 61q-84 -82 -194 -82q-119 0 -197.5 82t-78.5 218q0 168 94 307q115 169 294 169q127 0 188 -97l18 79h189l-108 -513 q-10 -49 -10 -63q0 -18 8.5 -27t19.5 -9q34 0 89 42q73 54 118 145.5t45 189.5q0 177 -127.5 295.5t-355.5 118.5q-194 0 -329 -79.5t-203.5 -223t-68.5 -298.5q0 -151 76 -275t214 -181t316 -57q171 0 294 47.5t198 143.5h153q-72 -146 -220 -228q-170 -95 -414 -95 q-236 0 -408 80t-255.5 236t-83.5 339zM498 308q0 -91 37 -134t92 -43q40 0 76 20q27 14 54 45q38 44 65.5 127.5t27.5 156.5q0 81 -37.5 124t-95.5 43q-61 0 -113.5 -47.5t-79 -135.5t-26.5 -156z" />
<glyph unicode="A" horiz-adv-x="1059" d="M0 0l409 1050h224l420 -1050h-230l-92 238h-420l-86 -238h-225zM377 415h286l-145 390z" />
<glyph unicode="B" horiz-adv-x="1059" d="M107 0v1050h420q125 0 186 -10.5t109.5 -43.5t80.5 -88t32 -123q0 -73 -39.5 -134.5t-107.5 -92.5q96 -28 147.5 -95.5t51.5 -158.5q0 -71 -33.5 -139t-91 -108.5t-142.5 -49.5q-53 -6 -255 -7h-358zM319 177h197q114 0 145 6q47 9 77 42t30 89q0 48 -23 80.5t-66.5 48 t-188.5 15.5h-171v-281zM319 632h139q124 0 154 4q55 6 86 37.5t31 81.5q0 49 -27 79.5t-80 36.5q-31 4 -181 4h-122v-243z" />
<glyph unicode="C" horiz-adv-x="1059" d="M69 516q0 262 135.5 407t356.5 145q192 0 313 -114q71 -68 107 -194l-210 -50q-18 82 -77.5 129t-143.5 47q-117 0 -189.5 -83.5t-72.5 -271.5q0 -199 71.5 -283.5t186.5 -84.5q84 0 145 54t87 169l206 -65q-47 -172 -157 -255.5t-279 -83.5q-209 0 -344 143t-135 391z " />
<glyph unicode="D" horiz-adv-x="1059" d="M106 0v1050h387q131 0 200 -20q92 -28 158 -97.5t100.5 -170t34.5 -247.5q0 -130 -32 -224q-40 -114 -113 -185q-55 -54 -149 -84q-70 -22 -187 -22h-399zM318 177h158q89 0 128 10q52 13 86 43.5t55.5 101t21.5 192.5t-21.5 187t-60 101.5t-98.5 49.5q-44 10 -174 10 h-95v-695z" />
<glyph unicode="E" horiz-adv-x="978" d="M107 0v1050h778v-178h-566v-233h527v-176h-527v-286h586v-177h-798z" />
<glyph unicode="F" horiz-adv-x="896" d="M108 0v1050h720v-178h-508v-248h438v-178h-438v-446h-212z" />
<glyph unicode="G" horiz-adv-x="1141" d="M70 528q0 164 69 291.5t201 195.5q101 53 251 53q196 0 306 -82t141 -227l-210 -39q-22 77 -83.5 121.5t-153.5 44.5q-138 0 -220 -88t-82 -261q0 -187 83 -280.5t217 -93.5q67 0 134 26.5t115 63.5v133h-243v177h457v-418q-67 -65 -193.5 -114t-255.5 -49 q-165 0 -287.5 69t-184 197.5t-61.5 279.5z" />
<glyph unicode="H" horiz-adv-x="1059" d="M107 0v1050h212v-413h416v413h212v-1050h-212v459h-416v-459h-212z" />
<glyph unicode="I" horiz-adv-x="407" d="M100 0v1050h212v-1050h-212z" />
<glyph unicode="J" d="M25 324l200 23q3 -90 26 -127q35 -57 105 -57q71 0 100 40.5t29 168.5v678h212v-665q0 -130 -23 -200q-31 -92 -112 -147.5t-213 -55.5q-156 0 -239.5 87t-84.5 255z" />
<glyph unicode="K" horiz-adv-x="1059" d="M110 0v1050h211v-466l429 466h285l-396 -409l417 -641h-274l-289 493l-172 -176v-317h-211z" />
<glyph unicode="L" horiz-adv-x="896" d="M112 0v1041h212v-864h527v-177h-739z" />
<glyph unicode="M" horiz-adv-x="1221" d="M104 0v1050h317l190 -716l189 716h318v-1050h-197v826l-209 -826h-204l-207 826v-826h-197z" />
<glyph unicode="N" horiz-adv-x="1059" d="M109 0v1050h206l430 -701v701h197v-1050h-213l-423 684v-684h-197z" />
<glyph unicode="O" horiz-adv-x="1141" d="M64 518q0 161 48 270q35 80 97 143.5t136 94.5q98 42 226 42q232 0 371.5 -144t139.5 -401q0 -254 -138 -397.5t-370 -143.5q-234 0 -372 143t-138 393zM282 526q0 -179 82.5 -271t209.5 -92q126 0 207.5 91.5t81.5 273.5q0 181 -79 269.5t-210 88.5q-132 0 -212 -89.5 t-80 -270.5z" />
<glyph unicode="P" horiz-adv-x="978" d="M107 0v1050h340q193 0 252 -16q90 -24 151 -103t61 -204q0 -97 -35 -163t-89.5 -103.5t-109.5 -49.5q-76 -15 -220 -15h-138v-396h-212zM319 574h116q125 0 167 16.5t66 51.5t24 82q0 57 -33.5 94.5t-84.5 46.5q-38 7 -153 7h-102v-298z" />
<glyph unicode="Q" horiz-adv-x="1141" d="M64 525q0 257 137.5 400t372.5 143q234 0 370.5 -143t136.5 -400q0 -136 -38 -239q-28 -79 -91 -153q78 -56 169 -89l-78 -149q-48 14 -94 39q-10 5 -141 93q-103 -45 -228 -45q-242 0 -379 142.5t-137 400.5zM282 525q0 -184 80.5 -275.5t203.5 -91.5q46 0 87 15 q-64 43 -131 66l59 121q105 -36 200 -107q41 48 61.5 116t20.5 156q0 182 -80.5 271.5t-209.5 89.5q-130 0 -210.5 -90t-80.5 -271z" />
<glyph unicode="R" horiz-adv-x="1059" d="M107 0v1050h446q169 0 245 -28.5t122 -101t46 -165.5q0 -118 -69.5 -195t-207.5 -97q69 -40 113.5 -88t120.5 -170l128 -205h-253l-154 228q-81 123 -111 155t-64 43.5t-107 11.5h-43v-438h-212zM319 606h157q153 0 191 13t59.5 44.5t21.5 78.5q0 53 -28.5 85.5 t-80.5 41.5q-25 3 -154 3h-166v-266z" />
<glyph unicode="S" horiz-adv-x="978" d="M53 342l206 20q19 -104 76 -153t153 -49q103 0 155 43.5t52 101.5q0 37 -22 63.5t-77 45.5q-37 13 -169 46q-171 42 -239 103q-97 87 -97 212q0 80 45.5 150t131 106.5t206.5 36.5q198 0 297.5 -87t104.5 -231l-212 -10q-13 81 -58 116.5t-134 35.5q-93 0 -145 -38 q-33 -24 -33 -65q0 -37 31 -64q40 -33 194.5 -69.5t229 -75.5t116 -107t41.5 -167q0 -90 -50 -169t-141.5 -117.5t-228.5 -38.5q-199 0 -305.5 92t-127.5 269z" />
<glyph unicode="T" horiz-adv-x="896" d="M32 872v178h834v-178h-311v-872h-212v872h-311z" />
<glyph unicode="U" horiz-adv-x="1059" d="M105 490v560h212v-569q0 -135 8 -175q14 -65 65 -104t140 -39q90 0 136 37t55 90.5t9 178.5v581h212v-552q0 -189 -17 -267t-63 -131.5t-123.5 -85.5t-202.5 -32q-150 0 -227.5 35t-123 90.5t-59.5 115.5q-21 91 -21 267z" />
<glyph unicode="V" horiz-adv-x="978" d="M-1 1050h230l266 -777l257 777h225l-376 -1050h-227z" />
<glyph unicode="W" horiz-adv-x="1384" d="M5 1050h217l158 -721l192 721h252l184 -734l161 734h214l-255 -1050h-225l-209 785l-209 -785h-229z" />
<glyph unicode="X" horiz-adv-x="978" d="M0 0l359 548l-325 502h247l211 -338l206 338h246l-327 -510l359 -540h-256l-232 363l-234 -363h-254z" />
<glyph unicode="Y" horiz-adv-x="978" d="M-2 1050h248l247 -416l242 416h244l-385 -610v-440h-212v442z" />
<glyph unicode="Z" horiz-adv-x="896" d="M16 0v191l551 681h-489v178h768v-165l-575 -708h598v-177h-853z" />
<glyph unicode="[" horiz-adv-x="488" d="M105 -296v1346h356v-159h-165v-1028h165v-159h-356z" />
<glyph unicode="\" horiz-adv-x="407" d="M-2 1068h148l263 -1086h-151z" />
<glyph unicode="]" horiz-adv-x="488" d="M27 -137h166v1030h-166v157h357v-1346h-357v159z" />
<glyph unicode="^" horiz-adv-x="856" d="M82 495l270 573h159l262 -573h-203l-142 351l-141 -351h-205z" />
<glyph unicode="_" d="M-14 -160h837v-130h-837v130z" />
<glyph unicode="`" horiz-adv-x="488" d="M30 1068h226l98 -215h-126z" />
<glyph unicode="a" d="M52 208q0 64 31 114.5t86.5 77.5t159.5 47q141 26 196 49v20q0 58 -28.5 83t-108.5 25q-54 0 -84 -21.5t-48 -74.5l-183 33q31 111 106 164t223 53q135 0 201 -32t92.5 -81t26.5 -180l-2 -235q0 -100 10 -148t36 -102h-199q-8 20 -19 59q-5 18 -7 24q-52 -50 -110.5 -75 t-125.5 -25q-117 0 -185 63.5t-68 161.5zM253 228q0 -42 31.5 -72.5t80.5 -30.5q55 0 104 35q36 28 48 67q8 26 8 98v40q-39 -13 -122.5 -31t-109.5 -35q-40 -28 -40 -71z" />
<glyph unicode="b" horiz-adv-x="896" d="M97 0v1050h201v-378q93 106 220 106q139 0 230 -101t91 -289q0 -195 -92.5 -300t-225.5 -105q-65 0 -128.5 32.5t-108.5 96.5v-112h-187zM296 397q0 -118 38 -175q52 -80 139 -80q66 0 113 57t47 179q0 130 -47.5 188t-120.5 58t-121 -56.5t-48 -170.5z" />
<glyph unicode="c" d="M61 379q0 189 99.5 294t269.5 105q139 0 220.5 -60t117.5 -182l-198 -36q-10 59 -45.5 89t-92.5 30q-75 0 -119.5 -51.5t-44.5 -173.5q0 -136 45.5 -191.5t121.5 -55.5q58 0 94.5 32.5t51.5 111.5l197 -33q-30 -136 -117.5 -205.5t-234.5 -69.5q-167 0 -266 105t-99 291z " />
<glyph unicode="d" horiz-adv-x="896" d="M60 383q0 193 91 294t230 101q127 0 220 -106v378h202v-1050h-187v112q-47 -65 -110.5 -97t-127.5 -32q-131 0 -224.5 105.5t-93.5 294.5zM266 397q0 -122 33 -176q49 -79 136 -79q70 0 118.5 59t48.5 176q0 131 -47 189t-121 58q-72 0 -120 -57t-48 -170z" />
<glyph unicode="e" d="M47 374q0 189 98.5 296.5t249.5 107.5q170 0 267 -112.5t97 -343.5h-506q2 -89 48.5 -139t115.5 -50q48 0 80 26t49 83l200 -34q-39 -110 -122 -167.5t-209 -57.5q-198 0 -293 129q-75 104 -75 262zM256 445h301q-2 88 -45 133.5t-105 45.5q-65 0 -108 -48t-43 -131z" />
<glyph unicode="f" horiz-adv-x="488" d="M17 602v158h112v58q0 96 20.5 143t75 77t138.5 30q86 0 168 -26l-27 -141q-48 12 -92 12t-63 -20.5t-19 -78.5v-54h150v-158h-150v-602h-201v602h-112z" />
<glyph unicode="g" horiz-adv-x="896" d="M60 384q0 192 92 293t229 101q141 0 233 -124v106h188v-682q0 -135 -22 -201.5t-62.5 -104.5t-107.5 -59.5t-169 -21.5q-193 0 -274 66.5t-81 168.5q0 10 1 24l229 -28q6 -40 27 -55q29 -22 90 -22q79 0 118 24q27 16 40 51q10 25 10 92v111q-90 -123 -228 -123 q-153 0 -243 130q-70 102 -70 254zM266 396q0 -121 47 -177t116 -56q74 0 124.5 57.5t50.5 170.5q0 118 -48.5 175.5t-123.5 57.5q-72 0 -119 -56.5t-47 -171.5z" />
<glyph unicode="h" horiz-adv-x="896" d="M105 0v1050h201v-386q97 114 232 114q70 0 126 -26t84 -66t38.5 -89t10.5 -151v-446h-201v402q0 119 -11.5 151.5t-40.5 51.5t-73 19q-50 0 -89.5 -24.5t-57.5 -73.5t-18 -145v-381h-201z" />
<glyph unicode="i" horiz-adv-x="407" d="M105 0v760h201v-760h-201zM105 863v187h201v-187h-201z" />
<glyph unicode="j" horiz-adv-x="407" d="M-67 -287l35 172q14 -3 26.5 -5t23.5 -2q31 0 50.5 13.5t26 32t6.5 111.5v725h201v-736q0 -146 -19 -205.5t-73 -93.5t-138 -34q-30 0 -64.5 5.5t-74.5 16.5zM101 863v187h201v-187h-201z" />
<glyph unicode="k" d="M98 0v1050h201v-557l236 267h248l-260 -277l278 -483h-217l-191 342l-94 -99v-243h-201z" />
<glyph unicode="l" horiz-adv-x="407" d="M105 0v1050h201v-1050h-201z" />
<glyph unicode="m" horiz-adv-x="1304" d="M90 0v760h186v-103q99 121 237 121q73 0 126.5 -30.5t87.5 -90.5q51 60 109 90.5t123 30.5q84 0 142 -34t87 -100q21 -49 21 -158v-486h-202v435q0 113 -20 146q-28 43 -86 43q-43 0 -80 -26t-53.5 -75.5t-16.5 -157.5v-365h-201v417q0 111 -11 143t-33.5 48t-60.5 16 q-47 0 -84 -25t-53.5 -72.5t-16.5 -157.5v-369h-201z" />
<glyph unicode="n" horiz-adv-x="896" d="M104 0v760h187v-111q99 129 250 129q67 0 122 -24t83.5 -61.5t39.5 -84.5t11 -135v-473h-201v388q0 123 -13 159.5t-42 56.5t-70 20q-52 0 -93.5 -29t-57 -76t-15.5 -175v-344h-201z" />
<glyph unicode="o" horiz-adv-x="896" d="M59 391q0 100 49.5 194t140 143.5t201.5 49.5q173 0 283 -112.5t110 -283.5q0 -172 -111 -285.5t-280 -113.5q-105 0 -199.5 47t-144 138.5t-49.5 222.5zM265 380q0 -113 53.5 -173t132.5 -60t132.5 60t53.5 175q0 111 -53.5 171.5t-132.5 60.5t-132.5 -60.5 t-53.5 -173.5z" />
<glyph unicode="p" horiz-adv-x="896" d="M100 -289v1049h187v-111q37 57 99 93t138 36q133 0 225 -104t92 -290q0 -190 -93 -295.5t-225 -105.5q-63 0 -114.5 25t-107.5 86v-383h-201zM299 393q0 -128 50.5 -189.5t123.5 -61.5q70 0 117 56.5t47 184.5q0 120 -48 178t-119 58q-74 0 -122.5 -57t-48.5 -169z" />
<glyph unicode="q" horiz-adv-x="896" d="M65 389q0 183 93 286t230 103q76 0 131.5 -32.5t98.5 -97.5v112h185v-1049h-201v382q-39 -51 -98 -80.5t-127 -29.5q-129 0 -213 97q-99 114 -99 309zM271 378q0 -125 47 -180.5t117 -55.5q69 0 121.5 62t52.5 186q0 116 -48 173t-119 57q-73 0 -122 -58t-49 -184z" />
<glyph unicode="r" horiz-adv-x="571" d="M97 0v760h187v-108q48 77 86 101.5t87 24.5q69 0 132 -38l-62 -176q-51 33 -95 33q-42 0 -71 -23t-46 -84t-17 -255v-235h-201z" />
<glyph unicode="s" d="M34 217l202 31q13 -59 52.5 -89.5t110.5 -30.5q78 0 117 29q27 20 27 54q0 22 -15 37t-67 27q-243 54 -308 98q-91 62 -91 171q0 99 78 166.5t242 67.5q156 0 232 -51t105 -151l-190 -35q-12 45 -46 68.5t-97 23.5q-80 0 -114 -22q-23 -16 -23 -41q0 -22 20 -37 q27 -20 188 -56.5t225 -89.5q63 -53 63 -149q0 -105 -87.5 -180t-258.5 -75q-156 0 -246.5 63t-118.5 171z" />
<glyph unicode="t" horiz-adv-x="488" d="M22 600v160h93v151l201 118v-269h138v-160h-138v-306q0 -94 4 -109t18 -25t34 -10q28 0 81 19l17 -156q-70 -30 -159 -30q-54 0 -97.5 18t-64 47t-28.5 79q-6 35 -6 142v331h-93z" />
<glyph unicode="u" horiz-adv-x="896" d="M101 279v481h201v-349q0 -160 11 -196.5t40.5 -57.5t74.5 -21q52 0 92.5 28.5t55.5 70t15 205.5v320h202v-760h-187v114q-42 -61 -109.5 -96t-142.5 -35q-77 0 -138 33.5t-88 94.5t-27 168z" />
<glyph unicode="v" d="M8 760h211l143 -388l42 -129q16 49 21 65q10 32 21 64l145 388h207l-303 -760h-181z" />
<glyph unicode="w" horiz-adv-x="1141" d="M6 760h196l142 -498l131 498h194l127 -498l146 498h198l-244 -760h-194l-131 489l-129 -489h-195z" />
<glyph unicode="x" d="M9 0l274 392l-263 368h246l134 -209l142 209h236l-257 -360l281 -400h-247l-155 236l-156 -236h-235z" />
<glyph unicode="y" d="M10 760h214l182 -539l178 539h208l-269 -731l-48 -133q-26 -66 -50 -101.5t-55 -57t-76.5 -34t-103.5 -12.5t-113 13l-18 157q47 -9 85 -9q70 0 103.5 41t51.5 105z" />
<glyph unicode="z" horiz-adv-x="733" d="M24 0v157l285 327q70 80 104 114q-35 -2 -92 -3l-269 -1v166h629v-142l-291 -335l-102 -111q84 5 104 5h311v-177h-679z" />
<glyph unicode="{" horiz-adv-x="571" d="M43 294v171q52 3 78.5 16t46 43.5t26.5 76.5q6 34 6 119q0 139 13 194t46.5 88t97.5 53q44 13 138 13h38v-172q-80 0 -102.5 -8.5t-33 -27t-10.5 -62.5q0 -45 -7 -171q-3 -71 -18 -115t-38.5 -73t-71.5 -60q42 -24 69 -56.5t41.5 -79t18.5 -124.5q5 -119 5 -152 q0 -47 11.5 -65.5t34.5 -28.5t101 -10v-172h-38q-97 0 -148.5 15.5t-87 51.5t-47.5 88.5t-12 165.5q0 132 -12 171q-15 58 -47 82.5t-98 28.5z" />
<glyph unicode="|" horiz-adv-x="410" d="M126 -309v1377h160v-1377h-160z" />
<glyph unicode="}" horiz-adv-x="571" d="M32 -137q77 0 100.5 10t34.5 28t11.5 61.5t6.5 167.5q3 74 19 119t42 76t67 54q-53 35 -77 68q-34 47 -46 120q-8 50 -12 221q0 53 -9 71t-32.5 27.5t-104.5 9.5v172h38q97 0 148.5 -15.5t86.5 -51.5t47.5 -88.5t12.5 -165.5q0 -131 11 -171q16 -58 48 -82.5t98 -28.5 v-171q-52 -3 -78.5 -16t-45.5 -43.5t-27 -76.5q-6 -34 -6 -119q0 -139 -12.5 -194t-46 -88t-98.5 -53q-44 -13 -138 -13h-38v172z" />
<glyph unicode="~" horiz-adv-x="856" d="M48 372v185q91 99 212 99q45 0 83 -9t136.5 -49t133.5 -40q40 0 92.5 24t102.5 76v-185q-33 -36 -92 -67.5t-122 -31.5q-36 0 -70 8.5t-107 40.5q-111 48 -174 48q-100 0 -195 -99z" />
<glyph unicode="&#xa1;" horiz-adv-x="488" d="M140 -45l52 530h113l52 -530v-246h-217v246zM147 559v201h202v-201h-202z" />
<glyph unicode="&#xa2;" d="M60 383q0 186 99.5 290.5t268.5 104.5q32 0 67 -5l81 269l88 -25l-80 -265q136 -52 184 -216l-199 -36q-8 51 -36 81l-131 -431q16 -3 33 -3q56 0 93 32.5t52 111.5l198 -33q-31 -136 -118.5 -205.5t-233.5 -69.5q-36 0 -72 5l-84 -277l-87 25l83 275q-99 43 -152.5 141 t-53.5 231zM266 393q0 -139 55 -200l128 426h-17q-76 0 -121 -52t-45 -174z" />
<glyph unicode="&#xa3;" d="M9 155q81 58 116.5 123.5t35.5 125.5q0 19 -3 41h-149v158h113q-30 84 -30 171q0 78 43 149t121 108t170 37q141 0 225 -71.5t102 -204.5l-194 -29q-13 77 -49 110.5t-90 33.5q-57 0 -95 -38t-38 -96q0 -31 10.5 -80t25.5 -90h223v-158h-190q2 -16 2 -32 q0 -56 -21.5 -104t-88.5 -126q40 20 99 20q25 0 45 -3q10 -2 59 -14q87 -22 118 -22q56 0 146 40l78 -170q-41 -23 -94.5 -36.5t-103.5 -13.5q-64 0 -171.5 30t-159.5 30q-87 0 -178 -62z" />
<glyph unicode="&#xa4;" d="M32 768l119 127l97 -97q38 20 77 30t80 10q40 0 79.5 -10t76.5 -30l96 96l120 -121l-95 -96q20 -36 30 -75t10 -81q0 -41 -10 -80t-30 -76l96 -95l-119 -123l-98 98q-35 -20 -74 -30.5t-82 -10.5q-40 0 -78.5 10t-75.5 30l-93 -94l-122 121l93 94q-20 37 -30.5 76 t-10.5 80t9.5 79.5t29.5 73.5zM261 521q0 -60 42.5 -102t101.5 -42q60 0 102.5 42t42.5 102t-42.5 102.5t-102.5 42.5t-102 -42.5t-42 -102.5z" />
<glyph unicode="&#xa5;" d="M1 1050h220l143 -305q28 -58 39 -101q14 47 39 101l146 305h220l-225 -452h190v-158h-270v-86h270v-159h-270v-195h-201v195h-265v159h265v86h-265v158h186z" />
<glyph unicode="&#xa6;" horiz-adv-x="410" d="M126 258h160v-567h-160v567zM126 502v566h160v-566h-160z" />
<glyph unicode="&#xa7;" d="M42 448q0 70 32.5 130t100.5 99q-36 38 -54.5 78t-18.5 82q0 97 75.5 164t212.5 67q141 0 221.5 -67t94.5 -175l-197 -20q-3 52 -31 80t-78 28q-47 0 -71.5 -20t-24.5 -46q0 -35 33 -68q22 -21 147 -101t165 -115q62 -52 89 -103t27 -114q0 -66 -32.5 -122.5 t-98.5 -102.5q44 -40 65.5 -85.5t21.5 -95.5q0 -106 -79.5 -178t-228.5 -72q-143 0 -229 71t-102 189l197 24q12 -65 48.5 -97.5t91.5 -32.5q47 0 75 25t28 60q0 33 -27 60q-27 26 -190.5 130.5t-213 173t-49.5 154.5zM225 487q0 -72 96 -138l205 -139q32 28 47.5 54.5 t15.5 50.5t-16.5 49t-90.5 78l-196 142q-24 -14 -42.5 -40.5t-18.5 -56.5z" />
<glyph unicode="&#xa8;" horiz-adv-x="488" d="M4 895v173h172v-173h-172zM311 895v173h174v-173h-174z" />
<glyph unicode="&#xa9;" horiz-adv-x="1080" d="M-6 523q0 144 74 275t203.5 202t270.5 71t270.5 -71t203.5 -202t74 -275t-72.5 -273.5t-202.5 -202.5t-273 -73t-273 73t-202.5 202.5t-72.5 273.5zM102 523q0 -115 58 -219.5t162.5 -163t219.5 -58.5t219.5 58.5t162.5 163t58 219.5t-59.5 221t-163.5 162.5t-217 56.5 t-217 -56.5t-163.5 -162t-59.5 -221.5zM273 518q0 92 34.5 164.5t99 108t144.5 35.5q88 0 147.5 -42t91.5 -132l-116 -27q-20 52 -51.5 76t-75.5 24q-65 0 -106.5 -49t-41.5 -154t40.5 -154t98.5 -49q48 0 83 28t54 94l115 -39q-27 -90 -90 -138t-150 -48q-123 0 -200 80.5 t-77 221.5z" />
<glyph unicode="&#xaa;" horiz-adv-x="543" d="M26 687q0 48 23 82t66 53q32 14 135 34q56 11 89 23v15q-1 35 -13 46q-17 15 -60 15q-37 0 -55 -12q-14 -9 -29 -47l-135 28q16 71 66 107.5t150 36.5q106 0 159 -28q36 -18 53 -64q10 -29 10 -110v-171q0 -75 5 -100.5t17 -49.5h-136q-9 18 -17 51q-63 -64 -154 -64 q-82 0 -128 43.5t-46 111.5zM175 697q0 -22 19 -40t50 -18q42 0 68.5 30t26.5 86v29q-15 -9 -44 -15q-77 -16 -92 -25q-28 -18 -28 -47z" />
<glyph unicode="&#xab;" d="M69 381l226 323h158l-186 -323l186 -331h-158zM349 381l227 323h158l-186 -323l186 -331h-158z" />
<glyph unicode="&#xac;" horiz-adv-x="856" d="M61 585v184h734v-500h-184v316h-550z" />
<glyph unicode="&#xad;" horiz-adv-x="488" d="M82 280v201h396v-201h-396z" />
<glyph unicode="&#xae;" horiz-adv-x="1080" d="M-6 523q0 144 74 275.5t203.5 202t270.5 70.5t270.5 -70.5t203.5 -202t74 -275.5t-72.5 -273.5t-202.5 -202.5t-273 -73t-273 73t-202.5 202.5t-72.5 273.5zM102 523q0 -116 58.5 -220.5t163 -163t219.5 -58.5t219 58.5t163 163t59 220.5t-60 222t-164 162.5t-217 56.5 t-217 -56.5t-164 -162.5t-60 -222zM294 229v582h118q167 0 187 -1q58 -5 90.5 -23.5t54.5 -56t22 -83.5q0 -63 -41 -107.5t-116 -55.5q27 -10 41 -22t40 -45q6 -8 42 -70l69 -118h-146l-49 95q-49 95 -81 119.5t-82 24.5h-31v-239h-118zM412 560h48q103 0 127.5 8t39 27.5 t14.5 44.5q0 24 -14 43t-40 27.5t-127 8.5h-48v-159z" />
<glyph unicode="&#xaf;" horiz-adv-x="810" d="M-14 1111v131h837v-131h-837z" />
<glyph unicode="&#xb0;" horiz-adv-x="586" d="M62 839q0 95 66.5 162t161.5 67q94 0 161 -67t67 -162q0 -94 -67 -161t-161 -67q-95 0 -161.5 67t-66.5 161zM180 839q0 -45 32.5 -77t77.5 -32t77.5 32t32.5 77t-32.5 77.5t-77.5 32.5t-77.5 -32.5t-32.5 -77.5z" />
<glyph unicode="&#xb1;" horiz-adv-x="805" d="M36 0v188h734v-188h-734zM36 528v188h275v273h183v-273h276v-188h-276v-273h-183v273h-275z" />
<glyph unicode="&#xb2;" horiz-adv-x="488" d="M18 521q8 60 39 108t139 134q82 63 98 84q22 27 22 55q0 27 -17.5 42.5t-54.5 15.5q-36 0 -54 -17.5t-22 -64.5l-136 11q11 84 54 123q57 51 162 51q99 0 152 -46t53 -108q0 -39 -16.5 -74t-52.5 -72q-19 -18 -97 -80q-41 -32 -59 -49h225v-113h-435z" />
<glyph unicode="&#xb3;" horiz-adv-x="488" d="M29 677l131 15q6 -40 27 -59t54 -19q35 0 56.5 21.5t21.5 56.5q0 30 -20 50.5t-53 20.5q-22 0 -66 -11l17 104q37 0 58 8t30 20.5t9 28.5q0 21 -15 34t-44 13q-30 0 -47.5 -16t-23.5 -54l-127 19q17 73 53 105q54 49 148 49q89 0 141 -44.5t52 -102.5q0 -27 -15 -50 q-20 -32 -54 -53q48 -17 72.5 -50t24.5 -78q0 -68 -60 -120.5t-158 -52.5q-92 0 -147 45t-65 120z" />
<glyph unicode="&#xb4;" horiz-adv-x="488" d="M134 853l99 215h225l-197 -215h-127z" />
<glyph unicode="&#xb5;" horiz-adv-x="845" d="M79 -291v1051h200v-344q0 -149 30 -203q38 -69 113 -69q40 0 75.5 25.5t53 71.5t17.5 173v346h203v-760h-187v92q-22 -40 -41.5 -60.5t-52 -35.5t-59.5 -15q-51 0 -90 28q-28 21 -62 83v-383h-200z" />
<glyph unicode="&#xb6;" d="M-1 753q0 75 29 138t79 99.5t117 50.5q40 9 157 9h427v-187h-81v-1152h-169v1152h-103v-1152h-174v750q-136 10 -209 87.5t-73 204.5z" />
<glyph unicode="&#xb7;" horiz-adv-x="407" d="M105 410v201h201v-201h-201z" />
<glyph unicode="&#xb8;" horiz-adv-x="488" d="M27 -204q74 -8 136 -8q63 0 94 23q24 17 24 44q0 25 -22.5 43t-68.5 18t-94 -15l19 71q55 19 120 19q89 0 135.5 -39t46.5 -96q0 -63 -51 -102q-70 -54 -199 -54q-93 0 -140 11v85z" />
<glyph unicode="&#xb9;" horiz-adv-x="488" d="M65 818v111q68 19 123 62q39 30 56 72h110v-542h-136v367q-67 -47 -153 -70z" />
<glyph unicode="&#xba;" horiz-adv-x="536" d="M19 798q0 128 67.5 199t180.5 71q112 0 180.5 -71.5t68.5 -198.5q0 -126 -68 -197t-181 -71t-180.5 70.5t-67.5 197.5zM170 797q0 -79 26.5 -112t68.5 -33t69 33t27 112t-27 112t-69 33t-68.5 -33t-26.5 -112z" />
<glyph unicode="&#xbb;" d="M76 50l186 324l-186 330h158l226 -330l-226 -324h-158zM357 50l186 324l-186 330h158l226 -330l-226 -324h-158z" />
<glyph unicode="&#xbc;" horiz-adv-x="1223" d="M66 818v111q68 19 123 62q39 30 56 72h110v-542h-136v367q-67 -47 -153 -70zM243 -39l623 1102h113l-622 -1102h-114zM747 74v101l273 337h112v-334h77v-104h-77v-104h-127v104h-258zM874 178h131v161z" />
<glyph unicode="&#xbd;" horiz-adv-x="1223" d="M66 818v111q68 19 123 62q39 30 56 72h110v-542h-136v367q-67 -47 -153 -70zM243 -39l623 1102h113l-622 -1102h-114zM751 -30q8 61 39.5 109t138.5 133q82 64 98 84q23 28 23 56q0 26 -18 42t-55 16q-35 0 -53.5 -18t-22.5 -65l-136 12q11 83 55 122q56 51 161 51 q99 0 152 -46t53 -108q0 -39 -16.5 -73.5t-52.5 -71.5q-19 -19 -97 -81q-41 -32 -58 -50h224v-112h-435z" />
<glyph unicode="&#xbe;" horiz-adv-x="1223" d="M29 677l131 15q6 -40 27 -59t54 -19q35 0 56.5 21.5t21.5 56.5q0 30 -20 50.5t-53 20.5q-22 0 -66 -11l17 104q37 0 58 8t30 20.5t9 28.5q0 21 -15 34t-44 13q-30 0 -47.5 -16t-23.5 -54l-127 19q17 73 53 105q54 49 148 49q89 0 141 -44.5t52 -102.5q0 -27 -15 -50 q-20 -32 -54 -53q48 -17 72.5 -50t24.5 -78q0 -68 -60 -120.5t-158 -52.5q-92 0 -147 45t-65 120zM261 -39l622 1102h113l-622 -1102h-113zM746 74v101l274 337h111v-334h78v-104h-78v-104h-127v104h-258zM874 178h130v161z" />
<glyph unicode="&#xbf;" horiz-adv-x="896" d="M72 -1q0 46 18.5 89.5t57.5 87t124 113.5q62 50 77.5 83.5t14.5 117.5h182q2 -48 2 -55q0 -81 -31.5 -140t-122 -133t-108.5 -103q-17 -30 -17 -67q0 -55 47 -97t126 -42q77 0 128 42.5t72 134.5l184 -24q-12 -89 -51 -148q-53 -81 -137.5 -120t-187.5 -39 q-172 0 -275 90.5t-103 209.5zM345 559v201h201v-201h-201z" />
<glyph unicode="&#xc0;" horiz-adv-x="1059" d="M0 0l409 1050h224l420 -1050h-230l-92 238h-420l-86 -238h-225zM314 1324h226l98 -215h-126zM377 415h286l-145 390z" />
<glyph unicode="&#xc1;" horiz-adv-x="1059" d="M0 0l409 1050h224l420 -1050h-230l-92 238h-420l-86 -238h-225zM377 415h286l-145 390zM397 1109l99 215h225l-197 -215h-127z" />
<glyph unicode="&#xc2;" horiz-adv-x="1059" d="M0 0l409 1050h224l420 -1050h-230l-92 238h-420l-86 -238h-225zM276 1109l151 212h186l148 -212h-162l-83 107l-77 -107h-163zM377 415h286l-145 390z" />
<glyph unicode="&#xc3;" horiz-adv-x="1059" d="M0 0l409 1050h224l420 -1050h-230l-92 238h-420l-86 -238h-225zM262 1108v26q0 75 36.5 115.5t93.5 40.5q25 0 46.5 -5.5t78.5 -31t89 -25.5q23 0 38.5 14.5t19.5 47.5h93q-1 -96 -36 -137.5t-91 -41.5q-25 0 -48 5q-17 4 -82.5 29t-96.5 25q-22 0 -35 -14t-14 -48h-92z M377 415h286l-145 390z" />
<glyph unicode="&#xc4;" horiz-adv-x="1059" d="M0 0l409 1050h224l420 -1050h-230l-92 238h-420l-86 -238h-225zM275 1110v173h172v-173h-172zM377 415h286l-145 390zM582 1110v173h174v-173h-174z" />
<glyph unicode="&#xc5;" horiz-adv-x="1059" d="M0 0l409 1050h224l420 -1050h-230l-92 238h-420l-86 -238h-225zM377 415h286l-145 390zM379 1119q0 58 41 99t99 41t99 -40.5t41 -99.5q0 -58 -41 -99t-99 -41t-99 41t-41 99zM455 1119q0 -27 19 -45.5t45 -18.5q27 0 45.5 18.5t18.5 45.5q0 26 -18.5 45t-45.5 19 q-26 0 -45 -19t-19 -45z" />
<glyph unicode="&#xc6;" horiz-adv-x="1466" d="M-62 0l490 1050h948v-178h-520v-233h479v-178h-479v-284h539v-177h-751v247h-363l-108 -247h-235zM359 430h288v461h-83z" />
<glyph unicode="&#xc7;" horiz-adv-x="1059" d="M69 516q0 262 135.5 407t356.5 145q192 0 313 -114q71 -68 107 -194l-210 -50q-18 82 -77.5 129t-143.5 47q-117 0 -189.5 -83.5t-72.5 -271.5q0 -199 71.5 -283.5t186.5 -84.5q84 0 145 54t87 169l206 -65q-47 -172 -157 -255.5t-279 -83.5q-209 0 -344 143t-135 391z M333 -204q74 -8 136 -8q63 0 94 23q24 17 24 44q0 25 -22.5 43t-68.5 18t-94 -15l19 71q55 19 120 19q89 0 135.5 -39t46.5 -96q0 -63 -51 -102q-70 -54 -199 -54q-93 0 -140 11v85z" />
<glyph unicode="&#xc8;" horiz-adv-x="978" d="M107 0v1050h778v-178h-566v-233h527v-176h-527v-286h586v-177h-798zM293 1324h226l98 -215h-126z" />
<glyph unicode="&#xc9;" horiz-adv-x="978" d="M107 0v1050h778v-178h-566v-233h527v-176h-527v-286h586v-177h-798zM376 1109l99 215h225l-197 -215h-127z" />
<glyph unicode="&#xca;" horiz-adv-x="978" d="M107 0v1050h778v-178h-566v-233h527v-176h-527v-286h586v-177h-798zM241 1109l151 212h186l148 -212h-162l-83 107l-77 -107h-163z" />
<glyph unicode="&#xcb;" horiz-adv-x="978" d="M107 0v1050h778v-178h-566v-233h527v-176h-527v-286h586v-177h-798zM254 1110v173h172v-173h-172zM561 1110v173h174v-173h-174z" />
<glyph unicode="&#xcc;" horiz-adv-x="407" d="M-6 1324h226l98 -215h-126zM100 0v1050h212v-1050h-212z" />
<glyph unicode="&#xcd;" horiz-adv-x="407" d="M77 1109l99 215h225l-197 -215h-127zM100 0v1050h212v-1050h-212z" />
<glyph unicode="&#xce;" horiz-adv-x="407" d="M-29 1109l151 212h186l148 -212h-162l-83 107l-77 -107h-163zM100 0v1050h212v-1050h-212z" />
<glyph unicode="&#xcf;" horiz-adv-x="407" d="M-31 1110v173h172v-173h-172zM100 0v1050h212v-1050h-212zM276 1110v173h174v-173h-174z" />
<glyph unicode="&#xd0;" horiz-adv-x="1059" d="M-2 458v133h109v459h386q134 0 202 -21q93 -28 159 -98.5t99.5 -171t33.5 -247.5q0 -130 -37 -234t-109 -173q-55 -53 -148 -83q-70 -22 -188 -22h-398v458h-109zM318 177h159q105 0 152 17q61 22 93 79q46 81 46 247q0 118 -19 182t-56 103.5t-97 55.5q-45 11 -182 11 h-96v-281h225v-133h-225v-281z" />
<glyph unicode="&#xd1;" horiz-adv-x="1059" d="M109 0v1050h206l430 -701v701h197v-1050h-213l-423 684v-684h-197zM280 1108v26q0 75 36.5 115.5t93.5 40.5q25 0 46.5 -5.5t78.5 -31t89 -25.5q23 0 38.5 14.5t19.5 47.5h93q-1 -96 -36 -137.5t-91 -41.5q-25 0 -48 5q-17 4 -82.5 29t-96.5 25q-22 0 -35 -14t-14 -48 h-92z" />
<glyph unicode="&#xd2;" horiz-adv-x="1141" d="M64 518q0 161 48 270q35 80 97 143.5t136 94.5q98 42 226 42q232 0 371.5 -144t139.5 -401q0 -254 -138 -397.5t-370 -143.5q-234 0 -372 143t-138 393zM282 526q0 -179 82.5 -271t209.5 -92q126 0 207.5 91.5t81.5 273.5q0 181 -79 269.5t-210 88.5q-132 0 -212 -89.5 t-80 -270.5zM359 1324h226l98 -215h-126z" />
<glyph unicode="&#xd3;" horiz-adv-x="1141" d="M64 518q0 161 48 270q35 80 97 143.5t136 94.5q98 42 226 42q232 0 371.5 -144t139.5 -401q0 -254 -138 -397.5t-370 -143.5q-234 0 -372 143t-138 393zM282 526q0 -179 82.5 -271t209.5 -92q126 0 207.5 91.5t81.5 273.5q0 181 -79 269.5t-210 88.5q-132 0 -212 -89.5 t-80 -270.5zM443 1109l99 215h225l-197 -215h-127z" />
<glyph unicode="&#xd4;" horiz-adv-x="1141" d="M64 518q0 161 48 270q35 80 97 143.5t136 94.5q98 42 226 42q232 0 371.5 -144t139.5 -401q0 -254 -138 -397.5t-370 -143.5q-234 0 -372 143t-138 393zM282 526q0 -179 82.5 -271t209.5 -92q126 0 207.5 91.5t81.5 273.5q0 181 -79 269.5t-210 88.5q-132 0 -212 -89.5 t-80 -270.5zM322 1109l151 212h186l148 -212h-162l-83 107l-77 -107h-163z" />
<glyph unicode="&#xd5;" horiz-adv-x="1141" d="M64 518q0 161 48 270q35 80 97 143.5t136 94.5q98 42 226 42q232 0 371.5 -144t139.5 -401q0 -254 -138 -397.5t-370 -143.5q-234 0 -372 143t-138 393zM282 526q0 -179 82.5 -271t209.5 -92q126 0 207.5 91.5t81.5 273.5q0 181 -79 269.5t-210 88.5q-132 0 -212 -89.5 t-80 -270.5zM308 1108v26q0 75 36.5 115.5t93.5 40.5q25 0 46.5 -5.5t78.5 -31t89 -25.5q23 0 38.5 14.5t19.5 47.5h93q-1 -96 -36 -137.5t-91 -41.5q-25 0 -48 5q-17 4 -82.5 29t-96.5 25q-22 0 -35 -14t-14 -48h-92z" />
<glyph unicode="&#xd6;" horiz-adv-x="1141" d="M64 518q0 161 48 270q35 80 97 143.5t136 94.5q98 42 226 42q232 0 371.5 -144t139.5 -401q0 -254 -138 -397.5t-370 -143.5q-234 0 -372 143t-138 393zM282 526q0 -179 82.5 -271t209.5 -92q126 0 207.5 91.5t81.5 273.5q0 181 -79 269.5t-210 88.5q-132 0 -212 -89.5 t-80 -270.5zM320 1110v173h172v-173h-172zM627 1110v173h174v-173h-174z" />
<glyph unicode="&#xd7;" horiz-adv-x="856" d="M78 734l133 133l218 -217l216 216l130 -130l-217 -216l219 -219l-133 -133l-219 219l-216 -217l-130 131l217 216z" />
<glyph unicode="&#xd8;" horiz-adv-x="1141" d="M45 30l123 138q-105 139 -105 363q0 249 138 393t369 144q191 0 317 -95l113 127l100 -88l-120 -134q48 -65 74.5 -159t26.5 -200q0 -250 -138 -393.5t-365 -143.5q-197 0 -315 90l-116 -131zM281 526q0 -114 33 -194l441 494q-72 61 -183 61q-130 0 -210.5 -90 t-80.5 -271zM393 218q74 -64 178 -64q127 0 209 92.5t82 275.5q0 116 -29 191z" />
<glyph unicode="&#xd9;" horiz-adv-x="1059" d="M105 490v560h212v-569q0 -135 8 -175q14 -65 65 -104t140 -39q90 0 136 37t55 90.5t9 178.5v581h212v-552q0 -189 -17 -267t-63 -131.5t-123.5 -85.5t-202.5 -32q-150 0 -227.5 35t-123 90.5t-59.5 115.5q-21 91 -21 267zM311 1324h226l98 -215h-126z" />
<glyph unicode="&#xda;" horiz-adv-x="1059" d="M105 490v560h212v-569q0 -135 8 -175q14 -65 65 -104t140 -39q90 0 136 37t55 90.5t9 178.5v581h212v-552q0 -189 -17 -267t-63 -131.5t-123.5 -85.5t-202.5 -32q-150 0 -227.5 35t-123 90.5t-59.5 115.5q-21 91 -21 267zM394 1109l99 215h225l-197 -215h-127z" />
<glyph unicode="&#xdb;" horiz-adv-x="1059" d="M105 490v560h212v-569q0 -135 8 -175q14 -65 65 -104t140 -39q90 0 136 37t55 90.5t9 178.5v581h212v-552q0 -189 -17 -267t-63 -131.5t-123.5 -85.5t-202.5 -32q-150 0 -227.5 35t-123 90.5t-59.5 115.5q-21 91 -21 267zM288 1109l151 212h186l148 -212h-162l-83 107 l-77 -107h-163z" />
<glyph unicode="&#xdc;" horiz-adv-x="1059" d="M105 490v560h212v-569q0 -135 8 -175q14 -65 65 -104t140 -39q90 0 136 37t55 90.5t9 178.5v581h212v-552q0 -189 -17 -267t-63 -131.5t-123.5 -85.5t-202.5 -32q-150 0 -227.5 35t-123 90.5t-59.5 115.5q-21 91 -21 267zM286 1110v173h172v-173h-172zM593 1110v173h174 v-173h-174z" />
<glyph unicode="&#xdd;" horiz-adv-x="978" d="M-2 1050h248l247 -416l242 416h244l-385 -610v-440h-212v442zM355 1109l99 215h225l-197 -215h-127z" />
<glyph unicode="&#xde;" horiz-adv-x="978" d="M107 0v1050h212v-198h128q193 0 253 -16q90 -24 150.5 -103t60.5 -205q0 -96 -35 -161.5t-89.5 -103.5t-109.5 -50q-76 -15 -220 -15h-138v-198h-212zM319 376h116q118 0 151 8q44 11 75 47.5t31 96.5q0 48 -24.5 84.5t-60 49t-186.5 12.5h-102v-298z" />
<glyph unicode="&#xdf;" horiz-adv-x="896" d="M100 0v682q0 143 25 217.5t98 121.5t190 47q146 0 218.5 -62.5t72.5 -154.5q0 -63 -39 -134t-45 -87t-6 -27q0 -24 18 -50q12 -16 86.5 -91t100 -127.5t25.5 -108.5q0 -104 -72 -173.5t-182 -69.5q-76 0 -138 39t-94 96l140 82q15 -27 34 -41.5t41 -14.5q29 0 49.5 21 t20.5 53q0 29 -22 59q-12 18 -98 100q-121 116 -121 182q0 42 46 139q37 75 43.5 95t6.5 41q0 32 -24 54t-63 22q-36 0 -62 -18.5t-35 -48.5q-13 -39 -13 -161v-682h-201z" />
<glyph unicode="&#xe0;" d="M52 208q0 64 31 114.5t86.5 77.5t159.5 47q141 26 196 49v20q0 58 -28.5 83t-108.5 25q-54 0 -84 -21.5t-48 -74.5l-183 33q31 111 106 164t223 53q135 0 201 -32t92.5 -81t26.5 -180l-2 -235q0 -100 10 -148t36 -102h-199q-8 20 -19 59q-5 18 -7 24q-52 -50 -110.5 -75 t-125.5 -25q-117 0 -185 63.5t-68 161.5zM186 1068h226l98 -215h-126zM253 228q0 -42 31.5 -72.5t80.5 -30.5q55 0 104 35q36 28 48 67q8 26 8 98v40q-39 -13 -122.5 -31t-109.5 -35q-40 -28 -40 -71z" />
<glyph unicode="&#xe1;" d="M52 208q0 64 31 114.5t86.5 77.5t159.5 47q141 26 196 49v20q0 58 -28.5 83t-108.5 25q-54 0 -84 -21.5t-48 -74.5l-183 33q31 111 106 164t223 53q135 0 201 -32t92.5 -81t26.5 -180l-2 -235q0 -100 10 -148t36 -102h-199q-8 20 -19 59q-5 18 -7 24q-52 -50 -110.5 -75 t-125.5 -25q-117 0 -185 63.5t-68 161.5zM253 228q0 -42 31.5 -72.5t80.5 -30.5q55 0 104 35q36 28 48 67q8 26 8 98v40q-39 -13 -122.5 -31t-109.5 -35q-40 -28 -40 -71zM307 853l99 215h225l-197 -215h-127z" />
<glyph unicode="&#xe2;" d="M52 208q0 64 31 114.5t86.5 77.5t159.5 47q141 26 196 49v20q0 58 -28.5 83t-108.5 25q-54 0 -84 -21.5t-48 -74.5l-183 33q31 111 106 164t223 53q135 0 201 -32t92.5 -81t26.5 -180l-2 -235q0 -100 10 -148t36 -102h-199q-8 20 -19 59q-5 18 -7 24q-52 -50 -110.5 -75 t-125.5 -25q-117 0 -185 63.5t-68 161.5zM167 856l151 212h186l148 -212h-162l-83 107l-77 -107h-163zM253 228q0 -42 31.5 -72.5t80.5 -30.5q55 0 104 35q36 28 48 67q8 26 8 98v40q-39 -13 -122.5 -31t-109.5 -35q-40 -28 -40 -71z" />
<glyph unicode="&#xe3;" d="M52 208q0 64 31 114.5t86.5 77.5t159.5 47q141 26 196 49v20q0 58 -28.5 83t-108.5 25q-54 0 -84 -21.5t-48 -74.5l-183 33q31 111 106 164t223 53q135 0 201 -32t92.5 -81t26.5 -180l-2 -235q0 -100 10 -148t36 -102h-199q-8 20 -19 59q-5 18 -7 24q-52 -50 -110.5 -75 t-125.5 -25q-117 0 -185 63.5t-68 161.5zM162 863v26q0 75 36.5 115.5t93.5 40.5q25 0 46.5 -5.5t78.5 -31t89 -25.5q23 0 38.5 14.5t19.5 47.5h93q-1 -96 -36 -137.5t-91 -41.5q-25 0 -48 5q-17 4 -82.5 29t-96.5 25q-22 0 -35 -14t-14 -48h-92zM253 228q0 -42 31.5 -72.5 t80.5 -30.5q55 0 104 35q36 28 48 67q8 26 8 98v40q-39 -13 -122.5 -31t-109.5 -35q-40 -28 -40 -71z" />
<glyph unicode="&#xe4;" d="M52 208q0 64 31 114.5t86.5 77.5t159.5 47q141 26 196 49v20q0 58 -28.5 83t-108.5 25q-54 0 -84 -21.5t-48 -74.5l-183 33q31 111 106 164t223 53q135 0 201 -32t92.5 -81t26.5 -180l-2 -235q0 -100 10 -148t36 -102h-199q-8 20 -19 59q-5 18 -7 24q-52 -50 -110.5 -75 t-125.5 -25q-117 0 -185 63.5t-68 161.5zM169 895v173h172v-173h-172zM253 228q0 -42 31.5 -72.5t80.5 -30.5q55 0 104 35q36 28 48 67q8 26 8 98v40q-39 -13 -122.5 -31t-109.5 -35q-40 -28 -40 -71zM476 895v173h174v-173h-174z" />
<glyph unicode="&#xe5;" d="M52 208q0 64 31 114.5t86.5 77.5t159.5 47q141 26 196 49v20q0 58 -28.5 83t-108.5 25q-54 0 -84 -21.5t-48 -74.5l-183 33q31 111 106 164t223 53q135 0 201 -32t92.5 -81t26.5 -180l-2 -235q0 -100 10 -148t36 -102h-199q-8 20 -19 59q-5 18 -7 24q-52 -50 -110.5 -75 t-125.5 -25q-117 0 -185 63.5t-68 161.5zM253 228q0 -42 31.5 -72.5t80.5 -30.5q55 0 104 35q36 28 48 67q8 26 8 98v40q-39 -13 -122.5 -31t-109.5 -35q-40 -28 -40 -71zM269 961q0 58 41 99t99 41t99 -40.5t41 -99.5q0 -58 -41 -99t-99 -41t-99 41t-41 99zM345 961 q0 -27 19 -45.5t45 -18.5q27 0 45.5 18.5t18.5 45.5q0 26 -18.5 45t-45.5 19q-26 0 -45 -19t-19 -45z" />
<glyph unicode="&#xe6;" horiz-adv-x="1304" d="M63 206q0 58 24 103t58 70.5t95 44.5q29 9 170 39q71 15 121 31v20q0 55 -30 82.5t-95 27.5q-57 0 -91 -23.5t-48 -72.5l-183 35q36 111 113 163t235 52q74 0 132.5 -18t99.5 -53q44 35 96 53t111 18q115 0 194 -48.5t124 -142.5t45 -266h-505q12 -98 54.5 -141.5 t103.5 -43.5q51 0 87 26t54 81l197 -35q-41 -113 -124 -169t-212 -56q-80 0 -148 26t-123 78q-51 -43 -131.5 -73.5t-165.5 -30.5q-122 0 -190 63.5t-68 159.5zM264 225q0 -42 31 -71t82 -29q53 0 99 33q35 25 44.5 62.5t9.5 143.5q-166 -44 -180 -49q-48 -16 -67 -38 t-19 -52zM732 447h304q-4 63 -17 91q-18 40 -54 63t-85 23q-42 0 -74 -20t-51 -59q-25 -52 -23 -98z" />
<glyph unicode="&#xe7;" d="M61 379q0 189 99.5 294t269.5 105q139 0 220.5 -60t117.5 -182l-198 -36q-10 59 -45.5 89t-92.5 30q-75 0 -119.5 -51.5t-44.5 -173.5q0 -136 45.5 -191.5t121.5 -55.5q58 0 94.5 32.5t51.5 111.5l197 -33q-30 -136 -117.5 -205.5t-234.5 -69.5q-167 0 -266 105t-99 291z M226 -204q74 -8 136 -8q63 0 94 23q24 17 24 44q0 25 -22.5 43t-68.5 18t-94 -15l19 71q55 19 120 19q89 0 135.5 -39t46.5 -96q0 -63 -51 -102q-70 -54 -199 -54q-93 0 -140 11v85z" />
<glyph unicode="&#xe8;" d="M47 374q0 189 98.5 296.5t249.5 107.5q170 0 267 -112.5t97 -343.5h-506q2 -89 48.5 -139t115.5 -50q48 0 80 26t49 83l200 -34q-39 -110 -122 -167.5t-209 -57.5q-198 0 -293 129q-75 104 -75 262zM179 1068h226l98 -215h-126zM256 445h301q-2 88 -45 133.5t-105 45.5 q-65 0 -108 -48t-43 -131z" />
<glyph unicode="&#xe9;" d="M47 374q0 189 98.5 296.5t249.5 107.5q170 0 267 -112.5t97 -343.5h-506q2 -89 48.5 -139t115.5 -50q48 0 80 26t49 83l200 -34q-39 -110 -122 -167.5t-209 -57.5q-198 0 -293 129q-75 104 -75 262zM256 445h301q-2 88 -45 133.5t-105 45.5q-65 0 -108 -48t-43 -131z M300 853l99 215h225l-197 -215h-127z" />
<glyph unicode="&#xea;" d="M47 374q0 189 98.5 296.5t249.5 107.5q170 0 267 -112.5t97 -343.5h-506q2 -89 48.5 -139t115.5 -50q48 0 80 26t49 83l200 -34q-39 -110 -122 -167.5t-209 -57.5q-198 0 -293 129q-75 104 -75 262zM160 856l151 212h186l148 -212h-162l-83 107l-77 -107h-163zM256 445 h301q-2 88 -45 133.5t-105 45.5q-65 0 -108 -48t-43 -131z" />
<glyph unicode="&#xeb;" d="M47 374q0 189 98.5 296.5t249.5 107.5q170 0 267 -112.5t97 -343.5h-506q2 -89 48.5 -139t115.5 -50q48 0 80 26t49 83l200 -34q-39 -110 -122 -167.5t-209 -57.5q-198 0 -293 129q-75 104 -75 262zM162 895v173h172v-173h-172zM256 445h301q-2 88 -45 133.5t-105 45.5 q-65 0 -108 -48t-43 -131zM469 895v173h174v-173h-174z" />
<glyph unicode="&#xec;" horiz-adv-x="407" d="M-16 1068h226l98 -215h-126zM105 0v760h201v-760h-201z" />
<glyph unicode="&#xed;" horiz-adv-x="407" d="M91 853l99 215h225l-197 -215h-127zM105 0v760h201v-760h-201z" />
<glyph unicode="&#xee;" horiz-adv-x="407" d="M-36 856l151 212h186l148 -212h-162l-83 107l-77 -107h-163zM105 0v760h201v-760h-201z" />
<glyph unicode="&#xef;" horiz-adv-x="407" d="M-33 895v173h172v-173h-172zM105 0v760h201v-760h-201zM274 895v173h174v-173h-174z" />
<glyph unicode="&#xf0;" horiz-adv-x="896" d="M59 382q0 174 116 285q97 93 218 93q39 0 78 -11q29 -9 81 -38q-28 50 -46.5 78t-57.5 77l-179 -85l-31 69l156 74q-72 66 -156 126h210q40 -32 78 -64l129 64l32 -71l-103 -47q138 -139 197.5 -278t59.5 -263q0 -185 -110 -297t-285 -112q-168 0 -277.5 111.5 t-109.5 288.5zM269 379q0 -113 52 -173t127 -60q77 0 130.5 60t53.5 166q0 107 -55 168.5t-130 61.5q-74 0 -126 -58.5t-52 -164.5z" />
<glyph unicode="&#xf1;" horiz-adv-x="896" d="M104 0v760h187v-111q99 129 250 129q67 0 122 -24t83.5 -61.5t39.5 -84.5t11 -135v-473h-201v388q0 123 -13 159.5t-42 56.5t-70 20q-52 0 -93.5 -29t-57 -76t-15.5 -175v-344h-201zM203 863v26q0 75 36.5 115.5t93.5 40.5q25 0 46.5 -5.5t78.5 -31t89 -25.5 q23 0 38.5 14.5t19.5 47.5h93q-1 -96 -36 -137.5t-91 -41.5q-25 0 -48 5q-17 4 -82.5 29t-96.5 25q-22 0 -35 -14t-14 -48h-92z" />
<glyph unicode="&#xf2;" horiz-adv-x="896" d="M59 391q0 100 49.5 194t140 143.5t201.5 49.5q173 0 283 -112.5t110 -283.5q0 -172 -111 -285.5t-280 -113.5q-105 0 -199.5 47t-144 138.5t-49.5 222.5zM228 1068h226l98 -215h-126zM265 380q0 -113 53.5 -173t132.5 -60t132.5 60t53.5 175q0 111 -53.5 171.5 t-132.5 60.5t-132.5 -60.5t-53.5 -173.5z" />
<glyph unicode="&#xf3;" horiz-adv-x="896" d="M59 391q0 100 49.5 194t140 143.5t201.5 49.5q173 0 283 -112.5t110 -283.5q0 -172 -111 -285.5t-280 -113.5q-105 0 -199.5 47t-144 138.5t-49.5 222.5zM265 380q0 -113 53.5 -173t132.5 -60t132.5 60t53.5 175q0 111 -53.5 171.5t-132.5 60.5t-132.5 -60.5 t-53.5 -173.5zM350 853l99 215h225l-197 -215h-127z" />
<glyph unicode="&#xf4;" horiz-adv-x="896" d="M59 391q0 100 49.5 194t140 143.5t201.5 49.5q173 0 283 -112.5t110 -283.5q0 -172 -111 -285.5t-280 -113.5q-105 0 -199.5 47t-144 138.5t-49.5 222.5zM208 856l151 212h186l148 -212h-162l-83 107l-77 -107h-163zM265 380q0 -113 53.5 -173t132.5 -60t132.5 60 t53.5 175q0 111 -53.5 171.5t-132.5 60.5t-132.5 -60.5t-53.5 -173.5z" />
<glyph unicode="&#xf5;" horiz-adv-x="896" d="M59 391q0 100 49.5 194t140 143.5t201.5 49.5q173 0 283 -112.5t110 -283.5q0 -172 -111 -285.5t-280 -113.5q-105 0 -199.5 47t-144 138.5t-49.5 222.5zM204 863v26q0 75 36.5 115.5t93.5 40.5q25 0 46.5 -5.5t78.5 -31t89 -25.5q23 0 38.5 14.5t19.5 47.5h93 q-1 -96 -36 -137.5t-91 -41.5q-25 0 -48 5q-17 4 -82.5 29t-96.5 25q-22 0 -35 -14t-14 -48h-92zM265 380q0 -113 53.5 -173t132.5 -60t132.5 60t53.5 175q0 111 -53.5 171.5t-132.5 60.5t-132.5 -60.5t-53.5 -173.5z" />
<glyph unicode="&#xf6;" horiz-adv-x="896" d="M59 391q0 100 49.5 194t140 143.5t201.5 49.5q173 0 283 -112.5t110 -283.5q0 -172 -111 -285.5t-280 -113.5q-105 0 -199.5 47t-144 138.5t-49.5 222.5zM203 895v173h172v-173h-172zM265 380q0 -113 53.5 -173t132.5 -60t132.5 60t53.5 175q0 111 -53.5 171.5 t-132.5 60.5t-132.5 -60.5t-53.5 -173.5zM510 895v173h174v-173h-174z" />
<glyph unicode="&#xf7;" horiz-adv-x="805" d="M35 424v188h734v-188h-734zM301 132v202h202v-202h-202zM301 702v202h202v-202h-202z" />
<glyph unicode="&#xf8;" horiz-adv-x="896" d="M62 384q0 172 110 283t282 111q127 0 223 -63l75 86l80 -66l-77 -88q43 -51 67.5 -121t24.5 -147q0 -170 -112.5 -283t-281.5 -113q-124 0 -220 60l-83 -95l-78 68l83 96q-43 52 -68 124.5t-25 147.5zM262 387q0 -71 20 -128l282 326q-48 39 -109 39q-81 0 -137 -62.5 t-56 -174.5zM345 173q47 -34 108 -34q83 0 138.5 62t55.5 173q0 68 -21 124z" />
<glyph unicode="&#xf9;" horiz-adv-x="896" d="M101 279v481h201v-349q0 -160 11 -196.5t40.5 -57.5t74.5 -21q52 0 92.5 28.5t55.5 70t15 205.5v320h202v-760h-187v114q-42 -61 -109.5 -96t-142.5 -35q-77 0 -138 33.5t-88 94.5t-27 168zM224 1068h226l98 -215h-126z" />
<glyph unicode="&#xfa;" horiz-adv-x="896" d="M101 279v481h201v-349q0 -160 11 -196.5t40.5 -57.5t74.5 -21q52 0 92.5 28.5t55.5 70t15 205.5v320h202v-760h-187v114q-42 -61 -109.5 -96t-142.5 -35q-77 0 -138 33.5t-88 94.5t-27 168zM345 853l99 215h225l-197 -215h-127z" />
<glyph unicode="&#xfb;" horiz-adv-x="896" d="M101 279v481h201v-349q0 -160 11 -196.5t40.5 -57.5t74.5 -21q52 0 92.5 28.5t55.5 70t15 205.5v320h202v-760h-187v114q-42 -61 -109.5 -96t-142.5 -35q-77 0 -138 33.5t-88 94.5t-27 168zM205 856l151 212h186l148 -212h-162l-83 107l-77 -107h-163z" />
<glyph unicode="&#xfc;" horiz-adv-x="896" d="M101 279v481h201v-349q0 -160 11 -196.5t40.5 -57.5t74.5 -21q52 0 92.5 28.5t55.5 70t15 205.5v320h202v-760h-187v114q-42 -61 -109.5 -96t-142.5 -35q-77 0 -138 33.5t-88 94.5t-27 168zM207 895v173h172v-173h-172zM514 895v173h174v-173h-174z" />
<glyph unicode="&#xfd;" d="M10 760h214l182 -539l178 539h208l-269 -731l-48 -133q-26 -66 -50 -101.5t-55 -57t-76.5 -34t-103.5 -12.5t-113 13l-18 157q47 -9 85 -9q70 0 103.5 41t51.5 105zM299 853l99 215h225l-197 -215h-127z" />
<glyph unicode="&#xfe;" horiz-adv-x="896" d="M100 -289v1339h201v-378q59 59 109 82.5t114 23.5q133 0 225 -104t92 -290q0 -190 -93 -295.5t-225 -105.5q-63 0 -114.5 25t-107.5 86v-383h-201zM299 397q0 -118 38 -175q52 -80 138 -80q67 0 114 57t47 179q0 130 -47.5 188t-120.5 58t-121 -56.5t-48 -170.5z" />
<glyph unicode="&#xff;" d="M10 760h214l182 -539l178 539h208l-269 -731l-48 -133q-26 -66 -50 -101.5t-55 -57t-76.5 -34t-103.5 -12.5t-113 13l-18 157q47 -9 85 -9q70 0 103.5 41t51.5 105zM165 895v173h172v-173h-172zM472 895v173h174v-173h-174z" />
<glyph unicode="&#x152;" horiz-adv-x="1466" d="M52 526q0 271 125 416q107 126 284 126q90 0 164.5 -36.5t120.5 -97.5v116h655v-178h-471v-233h431v-178h-431v-283h491v-178h-675v124q-82 -142 -275 -142q-187 0 -291 122q-128 149 -128 422zM270 542q0 -213 71 -304q54 -70 161 -70q130 0 181 98.5t51 271.5 q0 192 -62.5 270t-169.5 78q-106 0 -169 -78t-63 -266z" />
<glyph unicode="&#x153;" horiz-adv-x="1384" d="M63 379q0 106 47 203t138 146.5t204 49.5q79 0 145.5 -26.5t119.5 -79.5q50 53 113.5 79.5t140.5 26.5q72 0 133.5 -24.5t101 -61.5t67 -91.5t39.5 -124t12 -155.5h-501q8 -93 51.5 -139t109.5 -46q47 0 80.5 25t53.5 83l197 -31q-36 -108 -122 -169t-210 -61 q-72 0 -143 25.5t-125 80.5q-56 -53 -122.5 -79.5t-144.5 -26.5q-167 0 -276 111t-109 285zM270 369q0 -77 45.5 -148t134.5 -71q74 0 124.5 59t50.5 178q0 108 -50.5 166t-124.5 58q-79 0 -129.5 -59.5t-50.5 -182.5zM826 447h305q-6 93 -49 137.5t-108 44.5 q-70 0 -112 -57q-29 -40 -36 -125z" />
<glyph unicode="&#x178;" horiz-adv-x="978" d="M-2 1050h248l247 -416l242 416h244l-385 -610v-440h-212v442zM251 1110v173h172v-173h-172zM558 1110v173h174v-173h-174z" />
<glyph unicode="&#x2c6;" horiz-adv-x="488" d="M2 856l151 212h186l148 -212h-162l-83 107l-77 -107h-163z" />
<glyph unicode="&#x2dc;" horiz-adv-x="488" d="M-9 863v26q0 75 36.5 115.5t93.5 40.5q25 0 46.5 -5.5t78.5 -31t89 -25.5q23 0 38.5 14.5t19.5 47.5h93q-1 -96 -36 -137.5t-91 -41.5q-25 0 -48 5q-17 4 -82.5 29t-96.5 25q-22 0 -35 -14t-14 -48h-92z" />
<glyph unicode="&#x2000;" horiz-adv-x="682" />
<glyph unicode="&#x2001;" horiz-adv-x="1365" />
<glyph unicode="&#x2002;" horiz-adv-x="682" />
<glyph unicode="&#x2003;" horiz-adv-x="1365" />
<glyph unicode="&#x2004;" horiz-adv-x="455" />
<glyph unicode="&#x2005;" horiz-adv-x="341" />
<glyph unicode="&#x2006;" horiz-adv-x="227" />
<glyph unicode="&#x2007;" horiz-adv-x="227" />
<glyph unicode="&#x2008;" horiz-adv-x="170" />
<glyph unicode="&#x2009;" horiz-adv-x="273" />
<glyph unicode="&#x200a;" horiz-adv-x="75" />
<glyph unicode="&#x2010;" horiz-adv-x="488" d="M82 280v201h396v-201h-396z" />
<glyph unicode="&#x2011;" horiz-adv-x="488" d="M82 280v201h396v-201h-396z" />
<glyph unicode="&#x2012;" horiz-adv-x="488" d="M82 280v201h396v-201h-396z" />
<glyph unicode="&#x2013;" d="M-3 305v150h816v-150h-816z" />
<glyph unicode="&#x2014;" horiz-adv-x="1466" d="M0 305v150h1466v-150h-1466z" />
<glyph unicode="&#x2018;" horiz-adv-x="407" d="M109 624v144q0 88 15.5 138.5t57 90.5t105.5 63l39 -83q-60 -20 -86 -56t-27 -95h97v-202h-201z" />
<glyph unicode="&#x2019;" horiz-adv-x="407" d="M84 695q61 20 86.5 55t27.5 96h-98v201h201v-144q0 -87 -15 -137.5t-56.5 -90.5t-106.5 -63z" />
<glyph unicode="&#x201a;" horiz-adv-x="407" d="M84 -151q61 20 86.5 55t27.5 96h-98v201h201v-144q0 -87 -15 -137.5t-56.5 -90.5t-106.5 -63z" />
<glyph unicode="&#x201c;" horiz-adv-x="733" d="M95 624v144q0 88 15 138.5t56.5 90.5t106.5 63l39 -83q-60 -20 -86 -56t-28 -95h98v-202h-201zM430 624v144q0 88 15.5 138.5t57.5 90.5t106 63l39 -83q-60 -20 -86 -56t-28 -95h98v-202h-202z" />
<glyph unicode="&#x201d;" horiz-adv-x="733" d="M75 697q61 20 87 56t27 95h-97v202h201v-145q0 -87 -15 -137.5t-57 -90.5t-106 -63zM413 697q60 20 86.5 56t26.5 95h-96v202h201v-145q0 -87 -15.5 -137.5t-57.5 -90.5t-105 -63z" />
<glyph unicode="&#x201e;" horiz-adv-x="733" d="M75 -151q61 20 87 56t27 95h-97v202h201v-145q0 -87 -15 -137.5t-57 -90.5t-106 -63zM413 -151q60 20 86.5 56t26.5 95h-96v202h201v-145q0 -87 -15.5 -137.5t-57.5 -90.5t-105 -63z" />
<glyph unicode="&#x2022;" horiz-adv-x="513" d="M47 518q0 88 62 150t150 62t149.5 -62t61.5 -150t-61.5 -150t-149.5 -62t-150 62.5t-62 149.5z" />
<glyph unicode="&#x2026;" horiz-adv-x="1466" d="M144 0v201h201v-201h-201zM633 0v201h201v-201h-201zM1121 0v201h202v-201h-202z" />
<glyph unicode="&#x202f;" horiz-adv-x="273" />
<glyph unicode="&#x2039;" horiz-adv-x="488" d="M54 381l226 323h158l-186 -323l186 -331h-158z" />
<glyph unicode="&#x203a;" horiz-adv-x="488" d="M54 50l186 324l-186 330h158l226 -330l-226 -324h-158z" />
<glyph unicode="&#x205f;" horiz-adv-x="341" />
<glyph unicode="&#x20ac;" d="M-23 368l23 111h70q-1 17 -1 37q0 32 2 58h-94l23 110h85q30 143 120 239q135 145 356 145q120 0 209 -44l-43 -198q-60 60 -177 60t-189 -83q-41 -48 -58 -119h394l-23 -110h-385q-1 -17 -1 -43q0 -25 1 -52h365l-23 -111h-327q18 -77 55 -120q72 -85 187 -85 q137 0 219 85v-219q-93 -47 -217 -47q-209 0 -344 143q-92 98 -121 243h-106z" />
<glyph unicode="&#x2122;" horiz-adv-x="1466" d="M155 948v102h476v-102h-176v-485h-119v485h-181zM702 463v587h185l107 -404l107 404h186v-587h-113v468l-127 -468h-108l-126 468v-468h-111z" />
</font>
</defs>
</svg>
